<?xml version="1.0" standalone="no"?>
<svg version="1.1" id="Layer_1" xmlnsCc="http://creativecommons.org/ns#" xmlnsDc="http://purl.org/dc/elements/1.1/" xmlnsRdf="http://www.w3.org/1999/02/22-rdf-syntax-ns#" xmlnsSvg="http://www.w3.org/2000/svg" xmlns="http://www.w3.org/2000/svg" xmlnsXlink="http://www.w3.org/1999/xlink" x="0px" y="0px" viewBox="0 0 595.2 595.2" enable-background="new 0 0 595.2 595.2" xmlSpace="preserve">
<path id="color_x5F_1" fill="#030303" d="M526.176,517.664h-3.733v-6.257v-42.111v-2.184v-2.53c0-0.711-0.46-1.171-1.171-1.171
	h-26.954v-12.29h0.986c0.329,0,0.596-0.267,0.596-0.596s-0.267-0.596-0.596-0.596c-0.729,0-0.986-0.258-0.986-0.986v-3.791
	c0-0.329-0.267-0.596-0.596-0.596c-0.289,0-0.53,0.207-0.584,0.479l-14.957-0.001c-0.055-0.272-0.296-0.479-0.584-0.479
	c-0.329,0-0.596,0.267-0.596,0.596v3.791c0,0.729-0.258,0.986-0.985,0.986c-0.329,0-0.596,0.267-0.596,0.596
	s0.267,0.596,0.596,0.596h0.985v18.696v47.847h-4.809c0.181-0.362,0.285-0.759,0.285-1.178v-14.28c0-1.634-1.532-2.964-3.415-2.964
	h-22.681v-4.954c0-0.329-0.267-0.596-0.596-0.596h-8.376c-0.035,0-0.07,0.004-0.105,0.01l-15.384,2.774
	c-0.283,0.051-0.49,0.298-0.49,0.586v2.18h-23.938v-2.18c0-0.288-0.207-0.535-0.49-0.586l-1.992-0.359
	c-5.462-38.811-16.513-115.733-21.013-135.388c-1.155-5.047-2.593-10.268-4.162-15.417c3.562-1.411,25.916-10.106,44.754-13.611
	l0.246-0.046c21.858-4.065,40.735-7.577,43.603-11.117c1.69-2.089,2.043-3.362,2.327-4.387c0.185-0.664,0.33-1.189,0.821-1.825
	c1.427-1.847,0.745-4.557,0.604-5.055c1.343-1.244,1.381-2.159,1.372-2.347c-0.005-0.105-0.038-0.207-0.096-0.296
	c-0.618-0.949-1.536-2.772-1.365-3.625c0.21-1.05,0.205-2.079,0.183-2.616c0.409-0.317,0.446-0.624,0.472-0.843
	c0.001-0.007-0.003-0.014-0.002-0.021c0.002-0.02,0.007-0.04,0.006-0.06c0.014-0.131,0.054-0.464,0.109-0.92l0.192-1.621
	c0.031-0.258,0.081-0.735-1.707-1.576c-0.065-0.819-0.385-2.807-1.949-4.574c-1.884-2.129-3.663-4.141-5.564-7.469
	c-2.096-3.668-9.354-3.141-9.665-3.117c-0.125,0.01-0.231,0.066-0.322,0.14c-3.067-1.984-4.681-3.824-5.014-4.225
	c-0.47-1.993-1.37-3.359-2.686-4.052c-1.21-0.638-2.46-0.538-3.215-0.378c-0.212-1.163-0.589-2.051-1.152-2.484
	c-0.926-0.711-2.146-0.94-3.339-0.624c-1.02,0.269-1.902,0.887-2.53,1.752c-0.327-0.454-0.742-0.832-1.246-1.14
	c-1.729-1.054-3.34-0.134-3.409-0.095c-0.037,0.021-0.071,0.047-0.104,0.076c-0.103,0.095-0.205,0.17-0.303,0.243
	c-0.425,0.315-0.781,0.634-1.021,1.372c-1.45-0.458-2.923-0.329-4.047,0.372c-0.966,0.602-2.14,1.911-2.25,4.729
	c-0.023,0.589-0.001,1.193,0.059,1.8c-0.046,0.164-0.476,1.269-3.625,1.447c-2.501,0.142-3.958,0.697-4.452,1.699
	c-0.294,0.595-0.201,1.298,0.262,1.979c1.061,1.562,3.839,2.833,5.828,2.675c1.852-0.151,3.019-1.154,3.662-1.945
	c0.709,1.424,1.536,2.467,2.286,2.783c-15.024-1.75-26.675-2.02-32.321-1.991c-14.021,0.019-14.177,1.355-14.235,1.858
	c-0.072,0.616-0.101,0.954-0.123,1.223c-0.032,0.381-0.053,0.617-0.18,1.368c-0.001,0.005,0.003,0.01,0.002,0.015
	c-0.001,0.006-0.005,0.01-0.006,0.016c-0.409,3.502,20.995,7.339,37.236,9.563c-10.825,0.602-32.231,1.726-38.295,1.556
	c-8.105-0.242-15.894,2.233-16.339,2.377c-0.476,0.084-5.57,0.996-8.086,1.783c-0.494,0.154-1.714,0.541-3.333,1.056
	c-3.594,1.14-10.565,3.353-14.682,4.618c-0.012,0.003-0.022,0.007-0.034,0.011c-1.267,0.39-2.258,0.688-2.792,0.836l-3.426-7.594
	l-6.263-25.114c0.354-1.942,0.594-3.757,0.757-5.337c3.908-2.373,10.268-15.489,6.454-24.01c-1.308-2.923-2.855-4.461-4.599-4.573
	c-0.636-0.041-1.228,0.114-1.758,0.371c-0.495-3.538-1.515-6.243-3.324-6.792c-0.008-0.058-0.005-0.117-0.03-0.171l-7.765-16.731
	c1.114-0.542,3.75-2.06,7.714-5.779c5.089-4.776,11.34-18.799,6.517-25.431c-3.984-5.482-9.591-3.897-11.341-3.223
	c-0.802-1.72-1.336-4.051-1.19-7.191c0.205-4.433-1.529-7.852-4.883-9.626c-3.786-2.004-9.059-1.432-12.823,1.39
	c-6.368,4.776-10.445,7.429-20.204,6.488c-3.394-0.329-5.623-0.818-7.589-1.25c-3.773-0.83-6.266-1.376-13.055,0.134
	c-2.771,0.615-4.823,2.192-6.102,4.687c-2.962,5.78-0.877,14.917,0.529,18.197c0.288,0.672,0.513,1.407,0.687,2.17
	c-0.513,1.686-2.24,6.889-3.241,8.75c-1.415,2.626-2.616,10.065,3.029,15.064c3.693,3.272,8.938,3.884,12.348,3.884
	c1.202,0,2.175-0.076,2.774-0.139l1.431,21.138c0.008,0.122,0.059,0.229,0.131,0.322c-1.442,1.329-1.612,3.776-1.063,6.681
	c-0.696-0.078-1.429-0.012-2.106,0.341c-1.549,0.807-2.343,2.839-2.358,6.041c-0.047,9.556,10.993,18.803,15.619,19.357
	c2.651,4.662,6.247,9.921,10.643,13.87l1.678,14.953l-0.049,8.939c-0.355,0.262-1.638,1.019-5.714,2.184
	c-0.331,0.095-0.67,0.187-1.019,0.278c-0.013,0.003-0.025,0.006-0.037,0.01c-5.281,1.377-12.286,2.352-12.84,2.428
	c-0.905,0.02-12.248,0.646-23.967,19.017c-6.378,9.998-10.883,25.644-14.858,39.448c-3.389,11.768-6.315,21.93-9.351,24.532
	c-6.558,5.621-3.111,19.158-2.515,21.298c-0.631,1.027-2.756,5.052-0.435,9.47c1.905,3.625,2.805,5.802,4.051,8.813
	c0.374,0.904,0.776,1.878,1.244,2.981c1.939,4.575,5.946,5.635,6.757,5.805c0.692,0.461,4.273,2.586,8.99,0.882
	c4.182-1.508,7.116-3.779,8.018-4.53c0.181,0.077,0.335,0.138,0.467,0.187c0.08,1.352,0.57,5.373,3.559,7.537
	c2.382,1.725,5.179,2.271,7.426,2.712c1.012,0.197,1.885,0.369,2.521,0.609c0.671,0.255,4.124,1.465,6.072,0.343
	c0.545-0.314,0.925-0.788,1.116-1.385c0.767-0.075,1.572-0.332,2.347-0.764c1.258-0.702,2.16-1.718,2.524-2.808
	c0.694,0.226,0.931,0.21,1.052,0.175c0.101,2.429,0.18,4.935,0.242,7.479h-15.379c-0.329,0-0.595,0.267-0.595,0.596v3.827
	c0,0.329,0.267,0.596,0.595,0.596h1.343v12.049c0,5.097,3.622,9.363,8.428,10.361v4.7h-22.681c-1.883,0-3.414,1.33-3.414,2.964
	v14.28c0,0.419,0.103,0.816,0.285,1.178h-12.725c1.544-0.648,2.408-1.334,2.582-1.482c0.892-0.46,6.375-3.521,6.578-9.284
	c0.034-0.491,0.476-8.465-6.104-13.223c-4.693-3.393-8.571-3.053-12.323-2.721c-1.591,0.14-3.095,0.271-4.652,0.128
	c-4.21-0.391-4.94-1.878-5.713-3.452c-0.153-0.312-0.305-0.62-0.479-0.92c-0.299-0.518-0.678-0.817-1.125-0.893
	c-0.781-0.135-1.467,0.466-2.075,0.991c-0.329,0.285-0.822,0.745-1.038,0.697c-0.531-0.044-0.8-0.436-1.311-1.246
	c-0.216-0.344-0.454-0.72-0.749-1.104c-0.258-0.335-0.568-0.519-0.922-0.547c-0.653-0.054-1.195,0.457-1.716,0.949
	c-0.432,0.408-0.921,0.868-1.245,0.779c-0.463-0.133-0.49-0.202-0.698-0.743c-0.199-0.52-0.5-1.304-1.38-2.429
	c-1.354-1.73-2.833-2.645-4.276-2.645c0,0-0.001,0-0.001,0c-1.268,0-2.449,0.69-3.512,2.051c-2.344,3-3.396,2.853-5.083,1.841
	c-1.647-0.988-4.986-0.796-6.87,0.039c-0.857,0.379-1.351,0.866-1.466,1.446c-0.158,0.791,0.442,1.715,1.078,2.692
	c0.415,0.639,1.11,1.708,0.957,2.035c-0.04,0.085-0.254,0.204-0.726,0.26l-0.169,0.02c-2.404,0.281-4.141,0.485-4.928,1.604
	c-0.408,0.579-0.499,1.324-0.279,2.278c0.41,1.775,0.166,2.66-0.277,4.266c-0.158,0.573-0.338,1.226-0.518,2.023
	c-0.568,2.514,0.73,4.786,1.452,5.808c-0.65,0.455-1.186,1.115-1.448,2.117c-0.642,2.462,2.71,3.968,3.689,4.35
	c0.155,0.326,0.333,0.75,0.258,0.923c-0.04,0.092-0.212,0.19-0.461,0.264c-1.618,0.479-3.828,1.926-3.791,3.128h-6.636
	c0.41-0.068,0.813-0.179,1.2-0.369c2.873-1.412,6.453-17.526,5.395-24.284c-0.274-1.747-1.108-3.079-2.479-3.961
	c-3.598-2.312-9.639-0.656-9.895-0.586c-0.018,0.005-0.036,0.011-0.053,0.018c-1.606-2.272-3.67-2.93-4.599-3.114
	c-0.729-0.145-1.463-0.16-2.178-0.077c-0.181-0.599-0.663-1.816-1.957-4.276c-1.27-2.412-3.234-5.177-4.937-5.702
	c-0.604-0.186-1.051-0.055-1.32,0.089c-1.604,0.852-3.095,4.432-2.927,5.439c0.052,0.309,0.218,0.479,0.35,0.566
	c0.335,0.227,0.711,0.14,1.146,0.041c0.733-0.168,1.842-0.419,3.431,0.376c2.071,1.036,2.981,3.544,3.262,4.505
	c-1.029,0.641-1.883,1.525-2.402,2.606c-1.117-0.29-3.738-0.69-6.417,0.967c-3.353,2.073-3.04,9.026-1.365,20.335
	c0.55,3.714,1.652,6.064,3.369,7.184c0.148,0.096,0.299,0.168,0.45,0.243h-13.683v-44.689c0-0.166-0.069-0.325-0.192-0.438
	l-2.081-1.917c0.014-0.025,0.038-0.043,0.048-0.071c0.039-0.105,0.941-2.613,0.058-5.854c-0.733-2.688,3.969-10.969,11.968-16.896
	c4.82-3.573,4.541-7.769,3.945-9.951c-0.768-2.812-2.807-5.145-4.049-5.275c-0.625-0.067-1.479-0.16-11.229,15.305
	c-4.285,6.797-8.427,13.673-9.196,14.952l-2.629-2.422c0.225-0.823,0.637-2.904-0.06-5.462c-0.733-2.688,3.969-10.969,11.968-16.896
	c4.82-3.573,4.541-7.769,3.945-9.951c-0.768-2.812-2.807-5.145-4.049-5.275c-0.623-0.067-1.479-0.16-11.229,15.305
	c-3.951,6.268-7.78,12.602-8.957,14.556l-0.701-0.646c-0.11-0.102-0.254-0.158-0.403-0.158H87.744c-0.27,0-0.505,0.182-0.575,0.441
	l-14.596,54.395l-2.938,10.948H56.658c-0.658,0-1.19,0.533-1.19,1.19s0.533,1.19,1.19,1.19h420.299
	c0.025,0.114,0.044,0.237,0.044,0.392c0,0.329,0.267,0.596,0.596,0.596s0.596-0.267,0.596-0.596v-0.392h14.934v0.392v1.177
	c0,0.329,0.267,0.596,0.596,0.596s0.596-0.267,0.596-0.596c0-0.706,0.147-1.217,0.45-1.568h26.033
	c0.303,0.351,0.45,0.862,0.45,1.568c0,0.329,0.267,0.596,0.596,0.596s0.596-0.267,0.596-0.596v-1.568h3.733
	c0.657,0,1.19-0.533,1.19-1.19S526.833,517.664,526.176,517.664z M88.201,453.07h10.75l21.886,20.165v45.023H70.708L88.201,453.07z
	 M161.111,490.053c1.087,0.699,1.724,1.728,1.945,3.142c1.109,7.088-2.709,22.032-4.744,23.032
	c-1.381,0.678-3.174,0.177-4.755-0.267c-0.482-0.135-0.93-0.26-1.342-0.345c1.053-2.375,1.276-7.337,1.718-17.136l0.014-0.306
	c0.179-3.979-0.495-6.73-1.495-8.633C153.635,489.258,158.362,488.284,161.111,490.053z M133.07,510.064
	c-1.28-8.644-2.271-17.241,0.813-19.148c1.335-0.825,2.651-1.055,3.702-1.055c0.697,0,1.277,0.101,1.669,0.196
	c-1.786,5.788,0.757,11.782,0.87,12.043c0.13,0.302,0.483,0.438,0.782,0.31c0.302-0.13,0.441-0.48,0.311-0.782
	c-0.026-0.062-2.644-6.247-0.644-11.76c0.43-1.185,1.33-2.137,2.455-2.739c0.487-0.174,0.868-0.325,1.163-0.461
	c0.884-0.253,1.837-0.321,2.784-0.132c3.913,0.778,6.075,5.109,5.784,11.586l-0.014,0.305c-0.658,14.608-0.88,17.709-3.272,17.947
	c-2.668,0.275-4.467-1.552-4.485-1.571c-0.229-0.235-0.605-0.242-0.841-0.015s-0.244,0.603-0.017,0.84
	c0.019,0.02,0.134,0.138,0.335,0.307c-0.852,0.006-1.819,0.078-2.787,0.286c-0.306,0.065-0.645,0.158-1.006,0.258
	c-1.466,0.402-3.291,0.902-4.759-0.054C134.516,515.514,133.56,513.374,133.07,510.064z M140.84,517.664
	c0.047-0.013,0.099-0.026,0.146-0.039c0.338-0.093,0.654-0.18,0.94-0.241c2.333-0.5,4.753-0.129,5.104-0.069
	c0.739,0.219,1.6,0.34,2.559,0.244c0.802-0.08,1.429-0.331,1.927-0.852c0.461,0.048,1.076,0.22,1.72,0.4
	c0.756,0.211,1.597,0.439,2.453,0.557H140.84z M225.104,515.096c-1.263-0.106-4.172-0.355-8.9-1.269
	c-2.633-0.508-5.318-1.631-7.914-2.718c-2.236-0.937-4.348-1.82-6.27-2.242c-1.49-0.327-2.272-0.438-2.873-0.438
	c-0.392,0-0.706,0.048-1.088,0.112c-0.557,0.095-1.25,0.212-2.819,0.212c-1.665,0-2.013-0.371-2.454-1.18l38.155-0.11
	C230.417,512.03,225.952,514.64,225.104,515.096z M192.111,506.385c-0.496-0.75-1.267-1.601-2.737-2.421
	c-1.533-0.856-2.457-1.089-3.188-0.805c-0.824,0.321-1.116,1.212-1.455,2.242c-0.102,0.311-0.213,0.648-0.348,1.006l-5.703,0.017
	c-0.775-0.207-1.338-0.204-1.778,0.005l-6.477,0.019c0.069-0.098,0.105-0.198,0.124-0.289c0.129-0.625-0.451-1.068-1.328-1.739
	c-0.71-0.542-1.784-1.361-1.784-1.921c0-0.092,0.025-0.149,0.093-0.213c0.358-0.335,1.33-0.427,2.353-0.427
	c0.783,0,1.596,0.054,2.188,0.093c0.289,0.019,0.558,0.037,0.797,0.049c0.562,0.026,0.939-0.142,1.109-0.505
	c0.326-0.695-0.389-1.47-1.471-2.642c-0.538-0.582-1.137-1.231-1.438-1.764c0.468,0.05,1.291,0.265,1.93,0.431
	c0.842,0.22,1.795,0.469,2.692,0.602c1.03,0.149,1.517-0.225,1.744-0.567c0.395-0.594,0.244-1.462-0.033-2.227
	c1.059,0.432,2.477,0.968,3.509,1.197c0.395,0.086,0.747,0.036,1.045-0.156c0.592-0.381,0.76-1.166,0.938-1.998
	c0.242-1.135,0.452-1.888,1.132-2.011c0.993-0.183,2.899,0.917,4.431,1.8c1.794,1.035,2.847,1.608,3.595,1.355
	c0.26-0.087,0.513-0.227,0.781-0.376c1.102-0.61,2.611-1.45,5.908,1.171c3.678,2.926,7.369,2.706,12.476,2.405
	c1.237-0.073,2.562-0.151,3.996-0.191c5.545-0.151,11.336,1.66,14.064,4.406c1.02,1.025,1.587,2.147,1.693,3.342L192.111,506.385z
	 M190.612,506.389l-4.962,0.015c0.077-0.22,0.146-0.43,0.211-0.63c0.245-0.745,0.456-1.388,0.757-1.505
	c0.05-0.02,0.116-0.033,0.203-0.033c0.312,0,0.893,0.165,1.973,0.768C189.638,505.475,190.203,505.94,190.612,506.389z
	 M183.852,507.6c-0.126,0.239-0.268,0.482-0.428,0.727c-0.677,1.031-0.943,1.105-0.951,1.112c-0.122-0.038-0.4-0.4-0.604-0.665
	c-0.274-0.356-0.595-0.773-1.017-1.166L183.852,507.6z M165.735,501.337c0.175-0.775,0.351-1.411,0.504-1.969
	c0.462-1.675,0.767-2.78,0.29-4.85c-0.14-0.605-0.11-1.039,0.092-1.326c0.481-0.683,2.075-0.869,4.094-1.105l0.169-0.021
	c0.873-0.103,1.417-0.409,1.665-0.937c0.435-0.926-0.313-2.076-1.037-3.188c-0.387-0.596-0.971-1.495-0.908-1.811
	c0.02-0.1,0.207-0.337,0.781-0.591c0.848-0.375,2.125-0.6,3.315-0.6c0.975,0,1.891,0.151,2.461,0.493
	c2.53,1.517,4.204,0.979,6.634-2.13c0.825-1.057,1.691-1.593,2.574-1.593c0,0,0,0,0.001,0c1.343,0,2.557,1.189,3.338,2.188
	c0.77,0.983,1.022,1.641,1.207,2.121c0.24,0.625,0.448,1.165,1.482,1.461c0.971,0.281,1.758-0.463,2.389-1.059
	c0.245-0.23,0.654-0.617,0.787-0.632c0,0,0.033,0.017,0.089,0.091c0.271,0.353,0.488,0.697,0.686,1.012
	c0.552,0.877,1.072,1.704,2.219,1.799c0.718,0.069,1.323-0.471,1.917-0.983c0.348-0.301,0.879-0.735,1.099-0.718
	c0.059,0.01,0.167,0.098,0.292,0.315c0.16,0.275,0.3,0.562,0.44,0.848c0.843,1.717,1.797,3.661,6.672,4.113
	c1.665,0.152,3.293,0.011,4.867-0.128c3.696-0.325,7.188-0.633,11.521,2.5c3.109,2.248,4.508,5.351,5.132,7.862
	c-0.121-0.139-0.249-0.275-0.384-0.411c-3.433-3.455-10.153-4.896-14.941-4.756c-1.448,0.039-2.786,0.118-4.034,0.192
	c-5.025,0.297-8.343,0.493-11.665-2.148c-3.917-3.114-5.989-1.966-7.227-1.28c-0.228,0.127-0.425,0.236-0.568,0.284
	c-0.346,0.062-1.73-0.732-2.636-1.254c-1.876-1.081-3.814-2.195-5.238-1.94c-1.516,0.275-1.844,1.812-2.083,2.934
	c-0.096,0.451-0.242,1.133-0.417,1.245c-0.02,0.013-0.077,0.01-0.143-0.004c-1.706-0.38-4.719-1.735-4.75-1.749
	c-0.238-0.106-0.518-0.048-0.69,0.148c-0.173,0.194-0.199,0.479-0.064,0.702c0.585,0.971,0.963,2.151,0.778,2.431
	c-0.033,0.049-0.213,0.103-0.579,0.049c-0.833-0.123-1.753-0.363-2.565-0.575c-1.75-0.457-2.806-0.732-3.332-0.137
	c-0.174,0.197-0.333,0.553-0.105,1.124c0.273,0.685,1.034,1.508,1.77,2.305c0.313,0.339,0.732,0.793,0.995,1.133
	c-0.151-0.01-0.312-0.02-0.478-0.031c-2.42-0.157-4.501-0.22-5.433,0.653c-0.308,0.288-0.47,0.662-0.47,1.082
	c0,1.148,1.248,2.102,2.251,2.867c0.172,0.132,0.376,0.288,0.548,0.429c-0.06,0.014-0.12,0.027-0.18,0.04
	c-0.549,0.122-1.171,0.261-1.772,0.492C166.522,505.548,165.246,503.506,165.735,501.337z M167.69,510.892
	c-0.107,0.272-0.119,0.555-0.07,0.84c-1.034-0.572-2.143-1.46-1.889-2.431c0.215-0.827,0.704-1.323,1.321-1.653l8.974-0.025
	c-0.068,0.262-0.111,0.543-0.156,0.831c-0.115,0.75-0.245,1.6-0.841,2.295c-0.619,0.723-1.253,0.521-2.656-0.147
	c-1.096-0.522-2.335-1.112-3.654-0.618C168.197,510.179,167.851,510.484,167.69,510.892z M168.402,515.678
	c0.616-0.183,1.024-0.495,1.214-0.929c0.315-0.721-0.072-1.506-0.419-2.21c-0.206-0.416-0.488-0.986-0.399-1.21
	c0.031-0.078,0.154-0.162,0.339-0.231c0.847-0.32,1.759,0.119,2.725,0.577c1.247,0.594,2.799,1.332,4.072-0.151
	c0.817-0.954,0.982-2.027,1.114-2.891c0.062-0.402,0.125-0.816,0.247-1.015l1.225-0.004c0.022,0.007,0.044,0.013,0.066,0.02
	c1.18,0.358,1.823,1.193,2.34,1.865c0.457,0.594,0.913,1.139,1.576,1.128c0.608-0.022,1.164-0.5,1.917-1.646
	c0.313-0.476,0.559-0.94,0.761-1.385l6.258-0.019c0.055,0.101,0.108,0.2,0.16,0.298c0.563,1.064,1.096,2.069,3.643,2.069
	c1.669,0,2.449-0.133,3.019-0.229c0.777-0.132,1.167-0.199,3.507,0.314c1.816,0.399,3.88,1.264,6.065,2.178
	c2.651,1.11,5.393,2.258,8.147,2.79c3.433,0.662,5.922,0.979,7.53,1.146c-2.14,1.133-6.996,2.777-14.578,0.285
	c-5.387-1.77-10.478-1.109-15.869-0.413c-1.667,0.216-3.392,0.439-5.119,0.584c-3.139,0.262-6.59,0.232-9.929,0.204
	c-4.185-0.034-8.136-0.068-10.799,0.502c-0.977,0.209-1.461,0.205-1.681,0.175C165.842,517.026,167.019,516.088,168.402,515.678z
	 M189.225,517.664c1.35-0.137,2.689-0.299,3.989-0.468c5.253-0.679,10.215-1.322,15.344,0.363h0
	c0.115,0.038,0.225,0.069,0.339,0.104H189.225z M284.728,503.498h5.88c0.329,0,0.595,0.267,0.595,0.596s-0.267,0.596-0.595,0.596
	h-5.88c-0.329,0-0.595-0.267-0.595-0.596S284.399,503.498,284.728,503.498z M310.931,496.477c-0.283,0.051-0.49,0.298-0.49,0.586
	v2.18h-23.938v-2.18c0-0.288-0.206-0.535-0.49-0.586l-9.498-1.713h43.913L310.931,496.477z M239.028,506.329
	c0-1.799,1.025-2.831,2.812-2.831h37.894c0.329,0,0.595,0.267,0.595,0.596s-0.267,0.596-0.595,0.596H241.84
	c-1.137,0-1.622,0.49-1.622,1.64v7.591c0,0.329-0.267,0.596-0.595,0.596s-0.595-0.267-0.595-0.596V506.329z M385.417,437.833
	c3.153,21.329,6.188,42.64,8.359,58.062l-12.158-2.193c-0.035-0.006-0.07-0.01-0.105-0.01h-8.377c-0.329,0-0.596,0.267-0.596,0.596
	v4.954h-37.148v-4.954c0-0.109-0.037-0.205-0.088-0.293c0.988-0.398,1.904-0.938,2.719-1.6c0.914-0.047,1.831-0.088,2.737-0.144
	c23.668-1.483,38.067-7.471,38.21-7.53c0.259-0.11,0.406-0.386,0.354-0.661l-2.844-14.782c1.983,0.285,3.019,0.59,3.045,0.598
	c0.032,0.011,0.067,0.018,0.102,0.022c0.54,0.066,5.313,0.6,5.908-1.775c0.475-1.897,1.008-3.762,1.339-4.923
	c0.116-0.406-0.013-0.799-0.354-1.074c-1.042-0.842-5.58-0.64-11.389,0.136l-5.473-28.448c-0.032-0.166-0.134-0.311-0.278-0.398
	c-0.146-0.086-0.32-0.107-0.482-0.059c-0.155,0.049-15.776,4.813-33.857,6.14c-4.192,0.307-8.927,0.512-13.732,0.648
	c-4.889-8.359-9.313-18.881-1.855-27.292c7.787-8.779,0.446-19.944,0.371-20.057c-0.184-0.272-0.553-0.345-0.825-0.162
	c-0.273,0.183-0.347,0.553-0.163,0.826c0.069,0.104,6.897,10.518-0.273,18.604c-7.793,8.787-3.567,19.504,1.391,28.118
	c-7.943,0.202-15.948,0.218-21.914,0.186c-4.94-8.394-9.511-19.028-1.985-27.515c7.787-8.779,0.446-19.944,0.371-20.057
	c-0.182-0.272-0.552-0.346-0.826-0.162c-0.273,0.183-0.346,0.553-0.163,0.826c0.07,0.104,6.898,10.518-0.273,18.604
	c-7.847,8.848-3.509,19.651,1.491,28.295c-4.937-0.035-8.178-0.099-8.273-0.1c-0.157-0.026-0.321,0.061-0.436,0.177
	c-0.115,0.117-0.177,0.275-0.171,0.439l0.927,26.238h-8.104l-9.667-16.098c1.726,0.372,2.837,0.472,3.068,0.489
	c0.085,0.013,0.173,0.005,0.259-0.022c1.236-0.394,2.657-1.839,2.798-3.489c0.09-1.053-0.292-2.561-2.625-3.77
	c-1.027-0.533-2.798-1.525-4.895-2.706c0.828-2.045,4.112-10.453,8.53-25.639c4.842-16.644,5.195-71.335,5.219-77.727
	c3.012,0.059,16.65,0.272,28.548-0.294c9.193-0.438,15.346-3.212,20.288-5.441c2.385-1.074,4.443-2.003,6.401-2.467
	c0.22-0.052,0.435-0.102,0.644-0.149c0.05-0.005,0.101-0.016,0.149-0.034c3.834-0.863,5.623-0.917,6.273-0.899
	c1.303,4.56,13.713,47.701,22.21,67.428c8.917,20.698,17.479,41.231,17.563,41.437C385.377,437.767,385.396,437.802,385.417,437.833
	z M262.972,448.455l0.719,1.18c-1.07-0.723-2.183-1.444-3.232-2.107C261.253,447.817,262.101,448.129,262.972,448.455z
	 M288.986,441.46c1.251,0.022,4.286,0.069,8.36,0.095c5.136,9.002,0.52,18.055,0.472,18.147c-0.152,0.291-0.04,0.65,0.251,0.804
	c0.088,0.046,0.183,0.068,0.276,0.068c0.214,0,0.421-0.116,0.527-0.318c0.049-0.096,4.776-9.315-0.159-18.693
	c6.064,0.029,14.05,0.003,21.921-0.207c5.319,9.068,0.632,18.254,0.584,18.347c-0.152,0.291-0.04,0.65,0.251,0.804
	c0.089,0.046,0.183,0.068,0.276,0.068c0.214,0,0.421-0.116,0.527-0.318c0.05-0.096,4.852-9.476-0.296-18.938
	c4.603-0.136,9.125-0.338,13.15-0.633c16.153-1.186,30.359-5.096,33.484-6.001l5.337,27.741c-10.6,1.512-24.752,4.742-30.062,7.09
	v-1.805c0-0.329-0.267-0.596-0.596-0.596h-53.398L288.986,441.46z M341.947,484.181v-4.275c0.888-1.179,7.468-9.403,18.806-10.638
	c6.494-0.71,11.337-0.502,14.483-0.147l2.824,14.68c-2.583,1.002-16.232,5.938-37.375,7.263c-0.456,0.029-0.914,0.054-1.372,0.08
	C340.948,489.28,341.947,486.847,341.947,484.181z M462.344,307.081c-0.182,0.596-1.491,3.172-10.727,5.66
	c-6.798,1.831-11.384,1.023-14.763-0.851c-2.036-1.129-3.634-2.645-5.014-4.204c-2.565-2.898-4.108-5.741-4.788-7.144
	c8.005,0.732,15.378,1.168,21.412,1.255c0.77,0.011,1.496,0.017,2.186,0.017c1.823,0,3.368-0.038,4.681-0.103
	c2.941-0.147,4.708-0.437,5.772-0.768c-0.002,0.5-0.037,1.166-0.17,1.828C460.652,304.181,461.91,306.378,462.344,307.081z
	 M452.808,283.894c1.962,3.435,3.865,5.586,5.708,7.67c1.012,1.144,1.405,2.414,1.561,3.246c-1.713-0.656-4.403-1.485-8.608-2.529
	c0.097-1.819,0.024-7.855-4.96-10.42c-0.338-0.174-0.663-0.349-0.978-0.525C447.871,281.354,451.625,281.825,452.808,283.894z
	 M445.964,282.92c3.848,1.981,4.319,6.573,4.324,8.668c0,0.146,0,0.284-0.004,0.404c-0.215-0.052-0.425-0.103-0.647-0.156
	c-3.464-0.825-9.316-2.108-16.953-3.385c0.041-0.023,0.081-0.041,0.122-0.066c1.308-0.808,3.104-2.345,4.443-4.387
	c1.093-1.667,1.871-3.673,1.836-5.9C440.348,279.32,442.589,281.183,445.964,282.92z M432.905,277.892
	c0.12,0.753,0.121,1.688-0.226,2.561c-0.132,0.331-0.291,0.656-0.468,0.975C432.511,280.293,432.745,279.088,432.905,277.892z
	 M433.785,280.893c0.83-2.088,0.12-4.357-0.331-5.072c-0.05-0.078-0.153-0.243-0.327-0.351c0.043-0.924,0.033-1.809-0.034-2.612
	c0.555-0.129,1.575-0.25,2.516,0.25c1.02,0.542,1.729,1.685,2.107,3.398c0.58,2.625-0.23,4.994-1.484,6.889
	c-1.22,1.845-2.86,3.24-4.052,3.976c-0.697,0.43-1.306,0.445-1.717,0.046c-0.322-0.315-0.445-0.839-0.271-1.149
	c0.064-0.095,0.128-0.194,0.191-0.295c0.203-0.291,0.482-0.642,0.793-1.031c0.286-0.359,0.594-0.755,0.902-1.168
	C432.724,282.911,433.367,281.946,433.785,280.893z M426.146,280.42c0.051-1.169,0.108-2.495,0.38-3.878
	c0.406-2.069,0.416-3.705,0.017-4.964c0.461-0.938,1.256-1.612,2.209-1.864c0.84-0.22,1.679-0.067,2.311,0.417
	c1.256,0.966,1.354,8.058-0.764,13.334c-0.281,0.701-0.56,1.259-0.833,1.722c-0.018,0.031-0.037,0.072-0.056,0.103
	c-0.091,0.13-0.172,0.255-0.241,0.373c-0.001,0.002-0.002,0.004-0.003,0.006c-0.642,0.928-1.226,1.284-1.666,1.4
	c-0.281,0.073-0.522,0.049-0.73-0.004c-0.281-0.071-0.495-0.201-0.599-0.284c-0.501-0.398-0.789-0.869-0.854-2.096
	C426.006,283.596,426.072,282.089,426.146,280.42z M429.332,287.911c-0.218-0.034-0.433-0.068-0.653-0.102
	c0.146-0.093,0.292-0.18,0.433-0.3C429.172,287.649,429.246,287.783,429.332,287.911z M420.687,274.484
	c-0.002-0.262-0.001-0.51,0.003-0.745c0.013-0.886,0.063-1.563,0.152-2.073c0.154-0.89,0.368-1.048,0.723-1.312
	c0.111-0.083,0.226-0.168,0.343-0.271c0.209-0.104,1.146-0.501,2.144,0.107c0.439,0.268,0.925,0.679,1.242,1.455l-1.146,12.621
	c-0.154,0.183-0.34,0.336-0.565,0.463c-0.818,0.458-1.118,0.291-1.216,0.237c-1.236-0.683-1.5-5.921-1.587-7.643
	c-0.055-1.073-0.085-1.995-0.092-2.79C420.688,274.518,420.688,274.501,420.687,274.484z M420.528,284.235
	c0.324,0.923,0.737,1.485,1.262,1.774c0.657,0.362,1.433,0.286,2.373-0.241c0.028-0.016,0.057-0.032,0.084-0.048
	c0.117,0.58,0.331,1.092,0.715,1.543c-2.055-0.29-4.2-0.57-6.427-0.837c0.508-0.032,0.937-0.2,1.267-0.523
	C420.186,285.528,420.426,284.982,420.528,284.235z M411.513,284.284c-1.72,0.139-4.005-1.065-4.747-2.157
	c-0.217-0.32-0.277-0.583-0.179-0.782c0.101-0.203,0.646-0.878,3.452-1.038c1.964-0.111,3.115-0.572,3.791-1.074
	c0.209,1.056,0.516,2.086,0.881,3.022C414.404,282.776,413.427,284.129,411.513,284.284z M415.946,282.18
	c-0.015-0.075-0.045-0.147-0.087-0.211c-0.493-1.217-0.911-2.685-1.071-4.241c0.001-0.047-0.003-0.093-0.013-0.137
	c-0.051-0.55-0.069-1.11-0.048-1.673c0.071-1.818,0.655-3.12,1.689-3.765c0.858-0.535,2.023-0.605,3.182-0.207
	c-0.057,0.489-0.09,1.075-0.101,1.776c-0.003,0.231-0.004,0.474-0.003,0.729c-0.117,0.526-0.74,3.582-0.234,7.207
	c0.333,2.38-0.039,3.149-0.291,3.396c-0.12,0.118-0.353,0.263-0.932,0.169C417.596,285.15,416.697,283.956,415.946,282.18z
	 M372.064,287.498c0.02-0.235,0.044-0.525,0.1-1.021c1.918-1.095,20.801-1.841,45.34,1.023c13.63,1.591,25.299,3.864,33.263,5.828
	c0.001,0,0.001,0.001,0.002,0.001c0,0,0.001,0,0.001,0c4.548,1.122,7.888,2.144,9.687,2.88c0.057,0.037,0.118,0.063,0.187,0.079
	c0.613,0.26,1.031,0.484,1.218,0.658l-0.135,1.126c-1.923-1.336-6.384-2.681-11.975-3.932c-7.228-1.727-17.224-3.365-29.913-4.901
	c-0.862-0.107-1.704-0.208-2.501-0.302c-9.322-1.088-22.876-2.427-33.101-2.427c-0.633,0-1.252,0.006-1.858,0.017
	c-4.683,0.023-8.425,0.329-10.322,1.066C372.059,287.562,372.061,287.532,372.064,287.498z M371.98,289.15
	c1.623-0.837,4.942-1.311,9.741-1.427c0.364-0.003,0.735-0.005,1.118-0.005c7.777,0,19.464,0.666,34.358,2.404
	c13.591,1.587,24.365,3.426,31.899,5.091c6.043,1.418,10.164,2.885,12.233,4.371c-0.038,0.027-0.077,0.053-0.107,0.088
	c-2.313,1.168-14.823,1.506-35.103-0.408c-0.01,0-0.018-0.003-0.028-0.003c-3.101-0.293-6.383-0.638-9.838-1.042
	C389.369,295.082,373.475,290.952,371.98,289.15z M369.601,301.106c8.156,0.232,43.663-1.855,44.728-1.917
	c0.61,0.074,1.209,0.146,1.785,0.213c3.25,0.38,6.449,0.717,9.563,1.012c0.467,1.061,2.106,4.484,5.271,8.062
	c1.375,1.554,2.959,3.065,4.928,4.24c2.264,1.352,5.041,2.261,8.627,2.261c2.161,0,4.616-0.328,7.425-1.085
	c4.755-1.282,7.567-2.629,9.232-3.797c0.16,0.828,0.319,2.421-0.515,3.503c-0.635,0.821-0.825,1.508-1.027,2.235
	c-0.268,0.966-0.571,2.06-2.105,3.955c-2.59,3.199-23.079,7.011-42.895,10.697l-0.245,0.046
	c-16.93,3.149-36.673,10.462-43.237,12.995c1.896-2.57,5.811-7.678,9.799-11.666c5.498-5.498,9.254-7.612,9.292-7.633
	c0.287-0.159,0.391-0.521,0.231-0.809c-0.158-0.286-0.521-0.393-0.809-0.232c-0.157,0.087-3.925,2.2-9.557,7.832
	c-4.726,4.726-9.327,10.972-10.696,12.873c-1.348-4.343-2.779-8.616-4.208-12.672c-4.914-13.948-9.769-25.294-10.933-27.973
	C356.249,302.665,362.822,300.923,369.601,301.106z M342.237,306.266c1.617-0.514,2.835-0.899,3.329-1.054
	c2.08-0.65,6.151-1.421,7.52-1.671c1.677,3.847,14.098,32.759,19.751,57.454c2.57,11.229,7.289,41.227,11.879,72.105
	c-2.965-7.074-9.3-22.132-15.824-37.277c-8.879-20.611-22.067-66.959-22.268-67.666c-0.002-0.007-0.004-0.014-0.006-0.02
	c-0.001-0.001-0.001-0.001-0.001-0.002v-0.001c-0.002-0.006-0.004-0.012-0.006-0.018c-0.092-0.264-1.949-5.548-5.642-10.926
	c-2.775-4.041-5.817-6.957-7.25-8.231C335.983,308.247,338.78,307.362,342.237,306.266z M332.386,309.38
	c0.943,0.803,4.49,3.954,7.602,8.485c2.767,4.029,4.51,8.098,5.184,9.808c-0.955,0.017-2.685,0.181-5.651,0.828
	c-0.482-1.569-1.99-6.201-4.078-9.972c-1.927-3.481-5.284-6.604-6.861-7.961C329.601,310.252,330.851,309.862,332.386,309.38z
	 M336.836,324.428l-6.71-10.778c1.476,1.493,3.151,3.429,4.274,5.456C335.342,320.807,336.172,322.719,336.836,324.428z
	 M323.402,311.348c-1.645,6.669-9.896,10.887-14.44,12.343l0.111-10.563c4.102-1.03,9.161-3.766,11.343-8.399L323.402,311.348z
	 M243.252,224.134c-5.621-4.979-3.577-12.11-2.77-13.608c0.766-1.423,1.854-4.471,2.604-6.715c0.333,3.354-0.01,6.48-0.015,6.527
	c-0.037,0.327,0.198,0.621,0.524,0.658c0.325,0.047,0.622-0.197,0.658-0.524c0.028-0.242,0.547-4.983-0.349-9.219
	c0.003-0.01,0.005-0.019,0.008-0.028c0.061-0.213-0.002-0.433-0.147-0.581c-0.179-0.721-0.404-1.421-0.683-2.072
	c-1.488-3.473-3.182-12.079-0.564-17.186c1.109-2.164,2.893-3.533,5.3-4.068c6.533-1.452,8.923-0.928,12.542-0.133
	c1.9,0.417,4.264,0.937,7.73,1.272c10.196,0.986,14.429-1.767,21.033-6.721c3.408-2.555,8.156-3.087,11.552-1.29
	c2.923,1.547,4.433,4.572,4.25,8.519c-0.166,3.59,0.527,6.227,1.531,8.149c0.011,0.044,0.026,0.087,0.048,0.129
	c0.026,0.051,0.058,0.096,0.095,0.135c2.028,3.65,5.156,4.577,5.204,4.59c0.318,0.088,0.644-0.096,0.731-0.412
	c0.09-0.315-0.094-0.644-0.409-0.734c-0.161-0.046-2.534-0.77-4.256-3.563c1.621-0.624,6.354-1.883,9.813,2.875
	c2.763,3.798,1.336,10.99-1.502,16.822c-1.392,2.861-3.118,5.4-4.866,7.041c-3.846,3.609-6.394,5.069-7.402,5.565l-5.264-11.343
	c-2.738-5.901-14.145-5.982-23.584-3.561c-8.667,2.223-18.618,7.307-18.143,14.322l0.395,5.835l0.187,2.762
	C255.447,227.788,247.882,228.235,243.252,224.134z M258.445,223.856l-0.336-4.955c-0.398-5.883,8.377-10.813,17.251-13.088
	c3.618-0.928,7.439-1.458,10.894-1.458c5.391,0,9.887,1.29,11.315,4.366l4.781,10.301l8.325,17.937
	c-4.019-0.264-19.086-0.953-30.459,2.515c-10.619,3.237-17.704,7.673-20.083,9.296L258.445,223.856z M254.811,263.299
	c0.013-2.685,0.606-4.41,1.715-4.989c0.56-0.293,1.212-0.286,1.826-0.155c1.08,4.405,3.533,9.593,5.67,13.533
	c0.006,0.046,0.005,0.091,0.022,0.136c0.176,0.466,1.721,4.47,4.423,9.438C263.948,279.798,254.771,271.345,254.811,263.299z
	 M265.263,271.673c-1.908-7.619-2.629-15.863-1.876-23.561c3.417-2.04,9.289-5.095,17.176-7.5c9.037-2.755,20.483-2.836,26.635-2.63
	c4.182,8.392,5.909,15.35,7.746,24.533c0.75-4.002,1.317-11.223,0.743-16.894c0.462-0.297,0.983-0.5,1.53-0.467
	c1.25,0.081,2.49,1.419,3.589,3.872c3.283,7.337-1.683,18.764-5.224,21.942c0.187-2.336,0.197-3.914,0.196-4.188
	c-0.001-0.329-0.268-0.594-0.596-0.594h-0.001c-0.329,0-0.595,0.268-0.595,0.596c0.001,0.313-0.161,31.285-18.461,34.387
	c-0.833,0.142-1.653,0.209-2.462,0.209C277.536,301.375,266.418,274.572,265.263,271.673z M281.505,300.3l-0.297-2.651
	c3.654,2.946,7.808,4.926,12.393,4.925c0.892,0,1.8-0.075,2.724-0.231c10.907-1.849,15.697-12.561,17.803-21.758l1.406,5.637
	l4.226,16.945c-1.728,5.069-7.203,7.967-11.405,8.908c-0.27,0.061-0.463,0.299-0.466,0.575l-0.059,5.573l-0.977-4.919
	c-0.035-0.176-0.147-0.327-0.307-0.41c-0.159-0.084-0.347-0.092-0.512-0.021c-4.541,1.945-13.13,0.153-19.402-1.155
	c-1.419-0.296-2.759-0.574-3.934-0.786L281.505,300.3z M307.753,323.954c-8.245,1.191-19.553,0.189-25.05-3.591l0.044-8.213
	c1.095,0.202,2.339,0.462,3.642,0.733c6.14,1.28,14.445,3.015,19.433,1.343L307.753,323.954z M282.149,321.415
	c4.272,2.867,11.691,4.189,18.703,4.189c2.756,0,5.448-0.203,7.858-0.597c4.671-1.361,13.86-5.862,15.791-13.226
	c0.416-0.106,1.16-0.319,2.589-0.755l11.071,17.785c-2.042,0.495-4.125,1.435-6.531,2.52c-4.851,2.188-10.888,4.91-19.855,5.337
	c-7.666,0.366-16.057,0.407-21.846,0.372c-0.048-0.111-0.118-0.281-0.209-0.501c-0.498-1.199-1.664-4.006-3.491-7.26
	c-2.075-3.696-4.459-6.207-5.357-7.151c-0.005-0.006-0.01-0.011-0.015-0.016C281.477,321.835,281.881,321.603,282.149,321.415z
	 M279.678,322.594c0.076,0.085,0.181,0.195,0.331,0.354c0.87,0.916,3.179,3.348,5.182,6.914c1.792,3.193,2.898,5.854,3.43,7.134
	c0.005,0.013,0.01,0.024,0.015,0.036c-2.616-0.021-4.553-0.055-5.423-0.072c-0.218-1.311-0.97-4.519-2.824-7.765
	c-1.529-2.675-3.246-4.508-4.251-5.456C277.634,323.31,278.789,322.928,279.678,322.594z M274.766,324.108
	c0.676,0.579,2.79,2.529,4.588,5.677c2.245,3.929,2.737,7.727,2.741,7.758c0,0.001,0,0.001,0,0.002
	c0,0.604-0.102,60.565-5.174,78.002c-4.312,14.821-7.533,23.146-8.433,25.382c-0.36-0.203-0.717-0.404-1.071-0.604
	c-0.4-15.825-0.253-28.672,0.438-38.182c0.519-7.136,0.61-14.509,0.426-21.73c0.011-0.07,0.009-0.143-0.005-0.212
	c-0.68-25.838-4.877-49.692-5.63-53.79C264.507,326.141,270.197,325.275,274.766,324.108z M266.21,439.645
	c-0.586-0.329-1.157-0.649-1.721-0.964c-0.383-0.655-2.687-4.471-5.223-5.993c-1.631-0.979-3.14-0.826-4.119-0.526
	c-0.55,0.168-1.175,0.474-1.523,0.78c-1.233-0.554-2.117-0.862-2.574-0.862c-0.638,0-1.26,0.139-1.836,0.39l-0.604-2.775
	c-0.028-0.131-0.101-0.248-0.204-0.333c-0.027-0.023-2.785-2.313-3.802-5.215c-0.832-2.372-1.874-3.406-2.444-3.82
	c0.241-1.739,1.234-7.195,4.669-12.446c3.598-5.499,16.544-21.356,20.298-25.931c0.134,6.7,0.022,13.506-0.458,20.108
	C265.985,411.463,265.831,424.106,266.21,439.645z M214.5,409.214c3.307-2.835,6.138-12.664,9.721-25.107
	c3.953-13.727,8.433-29.284,14.718-39.137c10.206-15.998,20.222-18.141,22.522-18.425c0.587,3.183,3.636,20.383,5.026,41.057
	c0.273,4.067,0.484,8.266,0.597,12.523c-1.702,2.065-17.228,20.952-21.252,27.102c-3.201,4.893-4.354,9.858-4.744,12.196
	c-1.143-1.27-3.316-3.369-6.116-4.602c-0.993-0.437-1.953-0.795-2.84-1.089c-2.739-0.908-4.779-1.195-4.89-1.211
	c-0.325-0.047-0.626,0.184-0.67,0.509c-0.044,0.326,0.184,0.626,0.509,0.671c0.025,0.004,1.849,0.263,4.324,1.05
	c0.955,0.303,2.003,0.683,3.088,1.16c2.123,0.935,3.89,2.447,5.048,3.615c-2.568-0.811-7.034-1.944-11.454-1.777
	c-1.767,0.067-3.527,0.335-5.155,0.924c-5.854,2.117-9.421,7.041-10.868,9.433C211.166,424.259,209.292,413.678,214.5,409.214z
	 M222.583,455.381c-1.03-0.318-3.216-1.257-4.728-3.669c-0.249-0.397-0.484-0.824-0.688-1.305c-0.466-1.1-0.868-2.07-1.24-2.972
	c-1.258-3.041-2.167-5.238-4.097-8.913c-2.285-4.349,0.386-8.291,0.515-8.477c0.019-0.026,0.036-0.056,0.05-0.086
	c0.036-0.075,3.684-7.543,10.942-10.168c7.171-2.596,17.561,1.454,17.93,1.6c0.039,0.016,0.08,0.028,0.123,0.036
	c0.031,0.006,0.062,0.01,0.093,0.01c0.054,0.007,0.097-0.003,0.143-0.013c0.437,0.38,1.206,1.261,1.855,3.115
	c0.992,2.829,3.362,5.037,4.01,5.603l0.471,2.164c-1.612-0.242-5.182-0.018-12.415,3.21c-5.418,2.418-8.678,7.518-10.591,12.032
	C223.502,450.977,222.826,454.067,222.583,455.381z M231.413,456.44c-3.81,1.373-6.768-0.058-7.698-0.61
	c0.227-1.248,1.1-5.428,3.236-9.688c6.324,3.548,9.765,5.393,11.677,6.327C237.45,453.383,234.856,455.197,231.413,456.44z
	 M240.219,451.926c-0.046-0.022-0.095-0.045-0.145-0.068c-0.06-0.044-0.125-0.074-0.194-0.093c-2.43-1.176-8.352-4.424-12.375-6.679
	c1.887-3.419,4.623-6.74,8.526-8.481c0.323-0.144,0.63-0.275,0.938-0.407c6.421-2.752,9.503-2.877,10.742-2.724
	c-0.819,0.781-1.415,1.838-1.637,3.033c-0.105,0.568-0.156,1.211-0.209,1.892c-0.148,1.882-0.315,4.015-1.704,5.095
	c-0.675,0.524-1.336,1.242-1.927,2.077C241.024,447.281,240.137,449.529,240.219,451.926z M267.135,458.141
	c-0.021,0.014-0.04,0.029-0.058,0.046c-0.173,0.132-0.331,0.229-0.451,0.285c-0.17-0.023-0.481-0.127-0.906-0.296
	c-0.042-0.023-0.087-0.042-0.135-0.055c-0.298-0.122-0.647-0.273-1.037-0.448c-2.599-1.17-7.065-3.445-11.174-5.657
	c-0.29-0.153-0.65-0.046-0.806,0.242c-0.156,0.289-0.048,0.65,0.242,0.807c5.217,2.809,8.476,4.433,10.533,5.367
	c0.548,0.249,1.016,0.452,1.407,0.611c-0.259,0.817-0.986,1.626-1.988,2.185c-1.188,0.664-2.476,0.819-3.358,0.407
	c-2.208-1.032-8.093-4.332-8.153-4.365c-0.285-0.16-0.649-0.059-0.81,0.229c-0.161,0.286-0.059,0.649,0.228,0.811
	c0.243,0.136,5.983,3.354,8.23,4.404c0.257,0.12,0.532,0.209,0.821,0.266c-0.105,0.165-0.25,0.299-0.436,0.406
	c-1.075,0.62-3.313,0.233-5.055-0.425c-0.73-0.276-1.649-0.456-2.714-0.665c-2.132-0.417-4.787-0.937-6.956-2.508
	c-2.81-2.034-3.058-6.229-3.083-6.981c0.002-0.032,0.002-0.064-0.001-0.096c-0.001-0.007-0.001-0.013-0.002-0.019
	c-0.296-2.319,0.447-4.508,1.547-6.173c0.561-0.849,1.209-1.572,1.871-2.086c1.803-1.402,2.001-3.919,2.16-5.94
	c0.051-0.648,0.1-1.262,0.193-1.769c0.364-1.969,2-3.453,3.806-3.453c0.554,0,2.348,0.82,4.665,2.009
	c1.361,0.765,3.461,1.888,6.654,3.583c1.973,1.094,3.909,2.185,5.535,3.102c0.192,0.108,0.382,0.215,0.569,0.32
	c0.011,0.007,0.023,0.014,0.035,0.02c2.298,1.296,4.257,2.396,5.373,2.975c0.965,0.501,2.094,1.36,1.987,2.611
	c-0.095,1.112-1.118,2.12-1.869,2.419c-0.412-0.038-1.909-0.206-4.089-0.761c-0.014-0.006-0.025-0.017-0.039-0.021l-6.326-2.152
	c-0.039-0.013-0.078-0.016-0.118-0.021c-4.154-1.553-7.732-2.771-7.955-2.847c-0.048-0.018-0.098-0.028-0.147-0.032
	c-0.09-0.01-0.181,0.005-0.264,0.035c0,0.001,0,0.001,0,0.001c0,0,0,0-0.001,0c-0.081,0.03-0.156,0.079-0.218,0.144
	c-0.046,0.048-0.084,0.104-0.113,0.167c-0.028,0.063-0.045,0.128-0.051,0.193c-0.008,0.093,0.006,0.185,0.039,0.269v0.001
	c0,0,0,0.001,0.001,0.002c0.03,0.075,0.075,0.145,0.134,0.204c0.038,0.037,0.081,0.07,0.129,0.097
	c0.18,0.105,2.784,1.633,5.637,3.459c1.593,1.02,3.253,2.127,4.625,3.139l2.893,4.751
	C267.887,457.437,267.49,457.859,267.135,458.141z M268.079,458.907c0.262-0.228,0.52-0.513,0.753-0.832l5.505,9.038h-5.987
	C268.282,464.316,268.194,461.563,268.079,458.907z M254.314,484.181v-12.049h23.412h4.833h58.197v7.578v4.471
	c0,5.179-4.213,9.392-9.392,9.392h-67.658C258.528,493.572,254.314,489.359,254.314,484.181z M478.221,518.234v-47.821h14.905
	v47.821H478.221z M494.317,471.03v-0.563h0.731h1.432h22.607h2.029h0.134v0.186v27.036c-1.752-0.059-6.797,0.027-12.187,2.526
	c-5.369,2.491-12.724,2.329-14.747,2.229V471.03z M493.126,451.122v13.46v2.53v2.109h-14.934v-18.101L493.126,451.122z
	 M521.251,514.572v3.092h-1.263h-25.67v-14.026c0.475,0.024,1.182,0.05,2.068,0.05c3.241,0,8.767-0.347,13.179-2.394
	c5.156-2.391,10.093-2.461,11.687-2.411V514.572z M260.343,182.526c0.141-0.297,0.496-0.425,0.792-0.284
	c0.06,0.028,6.111,2.827,14.382,2.521c7.999-0.302,9.854-4.046,9.872-4.084c0.139-0.296,0.493-0.426,0.789-0.29
	c0.297,0.137,0.429,0.485,0.294,0.783c-0.082,0.182-2.104,4.448-10.91,4.78c-0.463,0.018-0.919,0.026-1.367,0.026
	c-7.859,0-13.328-2.546-13.569-2.66C260.329,183.177,260.202,182.822,260.343,182.526z M288.452,242.484
	c-0.101-0.521,0.239-1.024,0.76-1.125c0.228-0.045,5.644-1.072,10.692,0.003c5.193,1.107,7.7,4.241,7.805,4.374
	c0.327,0.417,0.254,1.021-0.164,1.348c-0.175,0.138-0.384,0.205-0.591,0.205c-0.285,0-0.567-0.126-0.757-0.368
	c-0.019-0.024-2.215-2.726-6.693-3.68c-4.668-0.994-9.875-0.007-9.927,0.003C289.056,243.345,288.552,243.004,288.452,242.484z
	 M279.336,248.966c-0.029,0.014-2.948,1.432-6.066,4.854c-3.074,3.374-3.804,5.868-3.812,5.893c-0.12,0.423-0.505,0.701-0.925,0.701
	c-0.085,0-0.171-0.011-0.256-0.035c-0.509-0.142-0.809-0.666-0.67-1.175c0.032-0.118,0.825-2.924,4.244-6.676
	c3.391-3.722,6.53-5.233,6.662-5.295c0.477-0.226,1.048-0.022,1.277,0.456C280.018,248.166,279.814,248.738,279.336,248.966z
	 M291.185,279.577c-3.97,0-7.469-2.185-8.067-3.473c-0.195-0.421-0.144-0.84,0.137-1.122c0.602-0.602,1.452-2.663,2.084-9.061
	c0.625-6.332-1.406-13.07-1.427-13.138c-0.096-0.314,0.081-0.647,0.395-0.744c0.315-0.095,0.647,0.081,0.744,0.395
	c0.087,0.284,2.122,7.037,1.473,13.604c-0.677,6.856-1.604,8.844-2.292,9.64c0.451,0.773,3.777,3.011,7.731,2.676
	c0.326-0.026,0.616,0.216,0.643,0.544c0.027,0.328-0.216,0.615-0.544,0.643C291.768,279.566,291.475,279.577,291.185,279.577z
	 M301.15,283.638c-4.4,2.8-9.398,3.245-12.126,3.245c-1.183,0-1.938-0.083-2.035-0.095c-0.326-0.038-0.56-0.333-0.522-0.66
	c0.038-0.327,0.33-0.564,0.66-0.522c0.073,0.008,7.441,0.811,13.384-2.972c5.851-3.723,5.767-10.371,5.766-10.438
	c-0.008-0.329,0.252-0.601,0.581-0.609c0.005,0,0.01,0,0.014,0c0.322,0,0.588,0.257,0.595,0.582
	C307.474,272.468,307.563,279.559,301.15,283.638z M299.136,258.095c0.486,1.474,0.094,2.929-0.876,3.248
	c-0.97,0.32-2.15-0.616-2.636-2.091s-0.094-2.929,0.876-3.248C297.47,255.685,298.65,256.621,299.136,258.095z M281.319,263.192
	c0.486,1.474,0.094,2.929-0.876,3.248c-0.97,0.32-2.15-0.616-2.636-2.091c-0.486-1.474-0.094-2.929,0.876-3.248
	C279.653,260.781,280.834,261.717,281.319,263.192z M340.817,346.046c0.249,0.214,0.278,0.59,0.064,0.84
	c-2.272,2.649-4.271,4.16-4.354,4.224c-0.107,0.08-0.232,0.119-0.356,0.119c-0.182,0-0.359-0.082-0.477-0.238
	c-0.197-0.263-0.145-0.636,0.118-0.833c0.02-0.015,1.983-1.502,4.165-4.047C340.193,345.86,340.568,345.834,340.817,346.046z
	 M331.866,354.513c0.211,0.252,0.177,0.628-0.076,0.838c-0.053,0.044-5.413,4.487-15.852,11.074
	c-10.443,6.589-23.507,12.266-23.638,12.321c-0.077,0.034-0.157,0.05-0.236,0.05c-0.23,0-0.45-0.135-0.547-0.359
	c-0.13-0.302,0.008-0.652,0.31-0.782c0.13-0.057,13.111-5.698,23.476-12.237c10.363-6.539,15.672-10.938,15.725-10.98
	C331.281,354.228,331.656,354.259,331.866,354.513z M225.867,504.331c0.248,0.217,0.272,0.593,0.056,0.84
	c-0.118,0.135-0.282,0.204-0.448,0.204c-0.139,0-0.277-0.049-0.39-0.146c-0.839-0.67-10.226-3.85-14.145-2.756
	c-4.05,1.131-6.923,0.791-9.919-1.167c-1.096-0.717-1.68-0.169-2.616,0.858c-0.618,0.678-1.268,1.399-2.159,1.322
	c-1.061-0.065-1.634-0.457-2.502-1.049c-0.64-0.437-1.517-1.035-2.996-1.796c-3.108-1.598-3.758-1.027-6.172,1.098
	c-2.472,2.175-4.963,1.056-5.9,0.636c-0.059-0.026-0.11-0.05-0.156-0.069c-0.323,0.172-1.089,0.987-1.716,1.834
	c-0.195,0.266-0.568,0.322-0.833,0.125c-0.264-0.195-0.32-0.568-0.125-0.832c1.945-2.632,2.701-2.381,2.95-2.296
	c0.089,0.029,0.212,0.083,0.366,0.152c0.887,0.398,2.731,1.226,4.614-0.433c2.536-2.231,3.687-3.242,7.517-1.273
	c1.544,0.794,2.457,1.417,3.123,1.871c0.828,0.564,1.17,0.799,1.905,0.845c0.314,0.003,0.776-0.465,1.204-0.936
	c0.855-0.94,2.149-2.361,4.148-1.054c2.262,1.479,4.649,2.216,8.947,1.017C215.166,500.06,225,503.572,225.867,504.331z
	 M177.531,513.679c-0.226-0.238-0.216-0.615,0.023-0.842c0.237-0.225,0.614-0.216,0.841,0.023c0.578,0.61,2.204,1.771,3.4,1.729
	c0.354-0.017,0.613-0.143,0.814-0.397c1.006-1.276,1.695-1.145,2.56-0.818c0.364,0.138,0.776,0.293,1.383,0.293
	c0.932,0,1.574-0.584,2.141-1.1c0.479-0.437,0.934-0.852,1.509-0.724c0.41,0.088,0.695,0.442,1.025,0.853
	c0.757,0.942,1.388,1.566,2.632,1.021c0.553-0.243,1.017-0.492,1.441-0.719c1.499-0.803,2.684-1.438,5.333-0.595
	c3.059,0.971,5.124,1.368,5.145,1.372c0.323,0.062,0.535,0.373,0.474,0.696c-0.061,0.322-0.369,0.536-0.696,0.474
	c-0.086-0.017-2.156-0.415-5.282-1.407c-2.172-0.689-2.968-0.265-4.412,0.51c-0.448,0.239-0.938,0.501-1.523,0.759
	c-2.173,0.957-3.387-0.554-4.039-1.365c-0.105-0.131-0.241-0.299-0.334-0.393c-0.124,0.082-0.319,0.261-0.471,0.397
	c-0.617,0.563-1.55,1.411-2.942,1.411c-0.825,0-1.391-0.214-1.804-0.37c-0.584-0.222-0.66-0.249-1.204,0.44
	c-0.414,0.524-1,0.818-1.695,0.851c-0.043,0.002-0.086,0.003-0.129,0.003C180.063,515.782,178.194,514.379,177.531,513.679z"></path>
<path id="color_x5F_w" fill="#ffffff" d="M425.316,284.686c0.689-1.09,0.756-2.596,0.829-4.266c0.051-1.169,0.108-2.495,0.38-3.878
	c0.406-2.069,0.416-3.705,0.017-4.964c0.461-0.938,1.256-1.612,2.209-1.864c0.84-0.22,1.679-0.067,2.311,0.417
	c1.256,0.966,1.354,8.058-0.764,13.334c-0.281,0.701-0.56,1.259-0.833,1.722c-1.727,0.522-3.48,0.55-3.766,0.899
	c-0.153,0.187,0.359,0.569,1.07,0.979c-0.281-0.071-0.495-0.201-0.599-0.284C425.669,286.383,425.381,285.913,425.316,284.686z
	 M411.513,284.284c1.914-0.156,2.892-1.509,3.198-2.029c-0.365-0.936-0.672-1.966-0.881-3.022c-0.676,0.502-1.827,0.963-3.791,1.074
	c-2.807,0.159-3.352,0.834-3.452,1.038c-0.099,0.199-0.038,0.462,0.179,0.782C407.508,283.219,409.793,284.423,411.513,284.284z
	 M422.365,284.967c0.098,0.054,0.397,0.221,1.216-0.237c0.226-0.126,0.411-0.28,0.565-0.463l1.146-12.621
	c-0.317-0.775-0.803-1.187-1.242-1.455c-0.997-0.609-1.935-0.212-2.144-0.107c-0.117,0.103-0.231,0.188-0.343,0.271
	c-0.354,0.263-0.568,0.422-0.723,1.312c-0.09,0.51-0.14,1.188-0.152,2.073c-0.004,0.235-0.005,0.483-0.003,0.745
	c0.001,0.017,0.001,0.033,0,0.05c0.007,0.795,0.037,1.717,0.092,2.79C420.865,279.046,421.129,284.284,422.365,284.967z
	 M432.905,277.892c-0.16,1.196-0.395,2.401-0.693,3.536c0.177-0.319,0.336-0.644,0.468-0.975
	C433.026,279.58,433.025,278.645,432.905,277.892z M307.888,312.651c0.003-0.276,0.196-0.515,0.466-0.575
	c4.202-0.941,9.677-3.839,11.405-8.908l-4.226-16.945c-0.965,4.334-4.682,17.761-14.165,20.504
	c-9.531,2.757-17.545-4.149-19.863-6.426l1.193,10.633c1.174,0.212,2.514,0.49,3.934,0.786c6.272,1.309,14.861,3.101,19.402,1.155
	c0.165-0.071,0.353-0.063,0.512,0.021c0.159,0.083,0.271,0.234,0.307,0.41l0.977,4.919L307.888,312.651z M436.232,283.395
	c1.253-1.895,2.064-4.264,1.484-6.889c-0.379-1.713-1.088-2.857-2.107-3.398c-0.94-0.5-1.961-0.379-2.516-0.25
	c0.067,0.803,0.077,1.688,0.034,2.612c0.174,0.108,0.277,0.273,0.327,0.351c0.451,0.715,1.161,2.984,0.331,5.072
	c-0.419,1.053-1.061,2.018-1.707,2.883C433.512,282.812,435.318,283.133,436.232,283.395z M414.788,277.728
	c0.16,1.556,0.578,3.023,1.071,4.241c0.042,0.064,0.072,0.136,0.087,0.211c0.751,1.776,1.649,2.97,2.092,3.042
	c0.579,0.094,0.812-0.051,0.932-0.169c0.252-0.246,0.624-1.015,0.291-3.396c-0.506-3.625,0.117-6.68,0.234-7.207
	c-0.001-0.255,0-0.498,0.003-0.729c0.011-0.701,0.044-1.287,0.101-1.776c-1.158-0.398-2.323-0.328-3.182,0.207
	c-1.034,0.645-1.618,1.947-1.689,3.765c-0.021,0.563-0.003,1.124,0.048,1.673C414.785,277.635,414.789,277.681,414.788,277.728z
	 M324.502,311.781c-1.931,7.363-11.12,11.864-15.791,13.226c-2.41,0.394-5.103,0.597-7.858,0.597
	c-7.012,0-14.431-1.322-18.703-4.189c-0.268,0.188-0.672,0.42-1.292,0.698c0.005,0.005,0.01,0.01,0.015,0.016
	c0.897,0.944,3.282,3.455,5.357,7.151c1.827,3.254,2.993,6.061,3.491,7.26c0.091,0.22,0.161,0.39,0.209,0.501
	c5.789,0.035,14.18-0.006,21.846-0.372c8.968-0.427,15.005-3.149,19.855-5.337c2.406-1.085,4.489-2.024,6.531-2.52l-11.071-17.785
	C325.663,311.463,324.918,311.676,324.502,311.781z M256.526,258.31c-1.109,0.579-1.702,2.305-1.715,4.989
	c-0.039,8.046,9.137,16.499,13.657,17.964c-2.702-4.969-4.247-8.972-4.423-9.438c-0.017-0.045-0.017-0.091-0.022-0.136
	c-2.137-3.941-4.59-9.128-5.67-13.533C257.738,258.024,257.086,258.016,256.526,258.31z M260.459,447.528
	c1.049,0.663,2.162,1.384,3.232,2.107l-0.719-1.18C262.101,448.129,261.253,447.817,260.459,447.528z M269.911,449.549
	c2.179,0.555,3.676,0.723,4.089,0.761c0.751-0.299,1.773-1.307,1.869-2.419c0.107-1.251-1.022-2.11-1.987-2.611
	c-1.116-0.579-3.075-1.679-5.373-2.975c-0.012-0.006-0.023-0.013-0.035-0.02c-0.188-0.105-0.377-0.212-0.569-0.32
	c-1.626-0.917-3.563-2.008-5.535-3.102c-3.193-1.695-5.293-2.818-6.654-3.583c-2.317-1.189-4.111-2.009-4.665-2.009
	c-1.805,0-3.441,1.484-3.806,3.453c-0.094,0.507-0.142,1.12-0.193,1.769c-0.159,2.021-0.357,4.538-2.16,5.94
	c-0.662,0.515-1.31,1.237-1.871,2.086c-0.398,2.234-0.698,8.308,3.155,8.837c4.781,0.656,9.469,2.906,12.844,3.563
	c1.573,0.306,3.12,0.068,4.324-0.487c-2.057-0.934-5.316-2.559-10.533-5.367c-0.29-0.156-0.398-0.518-0.242-0.807
	c0.156-0.288,0.517-0.396,0.806-0.242c4.109,2.213,8.575,4.487,11.174,5.657c0.684-0.588,1.097-1.313,1.08-2.083
	c-0.03-1.369-2.908-4.463-5.009-6.544c-2.853-1.826-5.457-3.354-5.637-3.459c-0.048-0.026-0.091-0.06-0.129-0.097
	c-0.06-0.06-0.104-0.129-0.134-0.204c0-0.001,0-0.002-0.001-0.002v-0.001c-0.033-0.084-0.047-0.176-0.039-0.269
	c0.006-0.065,0.023-0.131,0.051-0.193c0.029-0.063,0.067-0.119,0.113-0.167c0.062-0.064,0.137-0.113,0.218-0.144c0,0,0,0,0.001,0
	c0,0,0,0,0-0.001c0.083-0.03,0.173-0.045,0.264-0.035c0.049,0.004,0.099,0.015,0.147,0.032c0.223,0.076,3.802,1.294,7.955,2.847
	c0.039,0.005,0.079,0.008,0.118,0.021l6.326,2.152C269.887,449.532,269.898,449.543,269.911,449.549z M320.806,249.027
	c3.283,7.337-1.683,18.764-5.224,21.942c0.187-2.336,0.197-3.914,0.196-4.188c-0.001-0.329-0.268-0.594-0.596-0.594h-0.001
	c-0.329,0-0.595,0.268-0.595,0.596c0.001,0.313-0.161,31.285-18.461,34.387c-0.833,0.142-1.653,0.209-2.462,0.209
	c-16.127-0.003-27.245-26.806-28.4-29.705c-1.908-7.619-2.629-15.863-1.876-23.561c3.417-2.04,9.289-5.095,17.176-7.5
	c9.037-2.755,20.483-2.836,26.635-2.63c4.182,8.392,5.909,15.35,7.746,24.533c0.75-4.002,1.317-11.223,0.743-16.894
	c0.462-0.297,0.983-0.5,1.53-0.467C318.467,245.236,319.707,246.574,320.806,249.027z M279.336,248.966
	c0.478-0.228,0.681-0.801,0.454-1.279c-0.229-0.478-0.8-0.681-1.277-0.456c-0.132,0.063-3.271,1.574-6.662,5.295
	c-3.419,3.752-4.211,6.559-4.244,6.676c-0.139,0.51,0.161,1.034,0.67,1.175c0.085,0.023,0.171,0.035,0.256,0.035
	c0.419,0,0.805-0.278,0.925-0.701c0.007-0.025,0.738-2.519,3.812-5.893C276.388,250.399,279.307,248.981,279.336,248.966z
	 M281.319,263.192c-0.486-1.474-1.666-2.41-2.636-2.091c-0.97,0.32-1.362,1.774-0.876,3.248c0.486,1.474,1.666,2.411,2.636,2.091
	C281.413,266.12,281.805,264.666,281.319,263.192z M291.185,279.577c0.29,0,0.583-0.012,0.876-0.036
	c0.328-0.027,0.571-0.315,0.544-0.643c-0.027-0.328-0.317-0.57-0.643-0.544c-3.954,0.335-7.28-1.903-7.731-2.676
	c0.687-0.796,1.615-2.784,2.292-9.64c0.649-6.567-1.386-13.319-1.473-13.604c-0.096-0.314-0.428-0.49-0.744-0.395
	c-0.314,0.096-0.491,0.429-0.395,0.744c0.021,0.067,2.052,6.806,1.427,13.138c-0.632,6.398-1.482,8.459-2.084,9.061
	c-0.281,0.281-0.333,0.701-0.137,1.122C283.716,277.393,287.215,279.577,291.185,279.577z M307.467,272.168
	c-0.007-0.324-0.272-0.582-0.595-0.582c-0.004,0-0.009,0-0.014,0c-0.329,0.008-0.589,0.28-0.581,0.609
	c0.001,0.067,0.085,6.715-5.766,10.438c-5.943,3.783-13.311,2.98-13.384,2.972c-0.331-0.042-0.622,0.195-0.66,0.522
	c-0.038,0.327,0.196,0.622,0.522,0.66c0.096,0.011,0.852,0.095,2.035,0.095c2.728,0,7.726-0.444,12.126-3.245
	C307.563,279.559,307.474,272.468,307.467,272.168z M295.624,259.253c0.486,1.474,1.666,2.41,2.636,2.091
	c0.97-0.32,1.362-1.774,0.876-3.248s-1.666-2.41-2.636-2.091C295.531,256.324,295.138,257.778,295.624,259.253z M307.709,245.735
	c-0.104-0.133-2.611-3.267-7.805-4.374c-5.049-1.076-10.464-0.048-10.692-0.003c-0.521,0.101-0.861,0.604-0.76,1.125
	c0.1,0.521,0.604,0.861,1.125,0.76c0.052-0.01,5.258-0.998,9.927-0.003c4.479,0.954,6.675,3.656,6.693,3.68
	c0.189,0.242,0.472,0.368,0.757,0.368c0.207,0,0.416-0.067,0.591-0.205C307.963,246.756,308.036,246.153,307.709,245.735z
	 M448.465,301.798c-6.034-0.087-13.407-0.523-21.412-1.255c0.68,1.403,2.223,4.246,4.788,7.144c1.379,1.559,2.977,3.075,5.014,4.204
	c1.607-0.611,4.99-0.467,9.827-0.735c7.173-0.399,8.432-7.36,8.65-9.444c-1.313,0.066-2.858,0.103-4.681,0.103
	C449.961,301.815,449.234,301.809,448.465,301.798z M424.962,287.263c-0.384-0.451-0.598-0.963-0.715-1.543
	c-0.027,0.017-0.056,0.033-0.084,0.048c-0.94,0.527-1.716,0.603-2.373,0.241c-0.524-0.29-0.938-0.852-1.262-1.774
	c-0.103,0.746-0.343,1.293-0.726,1.667c-0.331,0.324-0.759,0.492-1.267,0.523C420.762,286.693,422.906,286.973,424.962,287.263z
	 M451.469,292.281c4.205,1.044,6.895,1.873,8.608,2.529c-0.156-0.832-0.549-2.102-1.561-3.246c-1.843-2.083-3.746-4.235-5.708-7.67
	c-1.182-2.069-4.936-2.54-7.277-2.559c0.315,0.176,0.64,0.352,0.978,0.525C451.493,284.426,451.566,290.463,451.469,292.281z
	 M446.793,289.18c1.599,0.573,2.821,1.684,3.495,2.407c-0.004-2.095-0.475-6.688-4.324-8.668c-3.375-1.736-5.616-3.6-6.879-4.822
	c0.035,2.227-0.743,4.233-1.836,5.9C439.066,285.527,444.525,288.367,446.793,289.18z M435.876,312.716
	c-1.969-1.176-3.552-2.686-4.928-4.24c-3.165-3.578-4.804-7.001-5.271-8.062c-3.114-0.295-6.313-0.633-9.563-1.012
	c-0.576-0.067-1.175-0.139-1.785-0.213c-1.065,0.063-36.573,2.149-44.728,1.917c-6.779-0.183-13.352,1.559-15.345,2.142
	c1.164,2.679,6.019,14.025,10.933,27.973c8.441-3.594,14.75-10.748,32.742-9.096c18.375,1.688,40.606-2.95,38.438-7.125
	C435.831,313.963,435.677,313.235,435.876,312.716z M460.456,296.21c-1.799-0.737-5.139-1.758-9.687-2.88c0,0-0.001,0-0.001,0
	c-0.001,0-0.001-0.001-0.002-0.001c-7.964-1.965-19.633-4.237-33.263-5.828c-24.539-2.865-43.422-2.119-45.34-1.023
	c-0.056,0.495-0.08,0.785-0.1,1.021c-0.003,0.035-0.006,0.065-0.009,0.097c1.897-0.737,5.639-1.043,10.322-1.066
	c0.606-0.011,1.224-0.017,1.858-0.017c10.225,0,23.778,1.339,33.101,2.427c0.797,0.093,1.639,0.195,2.501,0.302
	c12.689,1.536,22.685,3.174,29.913,4.901c5.592,1.251,10.052,2.596,11.975,3.932l0.135-1.126c-0.187-0.174-0.604-0.398-1.218-0.658
	C460.575,296.273,460.513,296.248,460.456,296.21z M274.766,324.108c-4.569,1.167-10.258,2.033-12.12,2.303
	c0.753,4.098,4.95,27.952,5.63,53.79c0.014,0.069,0.016,0.142,0.005,0.212c0.185,7.222,0.093,14.595-0.426,21.73
	c-0.691,9.51-0.838,22.356-0.438,38.182c0.354,0.199,0.71,0.4,1.071,0.604c0.899-2.235,4.121-10.561,8.433-25.382
	c5.072-17.437,5.173-77.398,5.174-78.002c0-0.001,0-0.001,0-0.002c-0.004-0.031-0.496-3.829-2.741-7.758
	C277.555,326.637,275.441,324.687,274.766,324.108z M222.931,418.673c1.628-0.589,3.388-0.857,5.155-0.924
	c1.281-0.729,2.385-1.787,3.318-2.998c-2.476-0.787-4.299-1.047-4.324-1.05c-0.326-0.045-0.554-0.345-0.509-0.671
	c0.044-0.325,0.345-0.556,0.67-0.509c0.112,0.016,2.151,0.303,4.89,1.211c1.149-1.753,1.977-3.698,2.482-5.38
	c1.037-3.456,27.701-35.716,31.873-40.75c-1.39-20.674-4.439-37.874-5.026-41.057c-2.3,0.284-12.316,2.427-22.522,18.425
	c-6.285,9.853-10.765,25.41-14.718,39.137c-3.583,12.443-6.414,22.272-9.721,25.107c-5.208,4.464-3.334,15.045-2.438,18.892
	C213.509,425.714,217.077,420.79,222.931,418.673z M353.086,303.541c-1.368,0.25-5.439,1.021-7.52,1.671
	c-0.494,0.154-1.712,0.54-3.329,1.054c-3.457,1.097-6.254,1.981-8.518,2.694c1.433,1.274,4.475,4.19,7.25,8.231
	c3.692,5.378,5.55,10.662,5.642,10.926c0.002,0.006,0.004,0.012,0.006,0.018v0.001c0,0.001,0,0.001,0.001,0.002
	c0.002,0.006,0.004,0.013,0.006,0.02c0.2,0.707,13.389,47.055,22.268,67.666c6.524,15.146,12.859,30.203,15.824,37.277
	c-4.59-30.879-9.309-60.876-11.879-72.105C367.184,336.3,354.763,307.388,353.086,303.541z M323.402,311.348l-2.986-6.619
	c-2.182,4.634-7.241,7.369-11.343,8.399l-0.111,10.563C313.506,322.234,321.758,318.017,323.402,311.348z M310.675,236.959
	l-8.325-17.937c-2.457-2.433-8.232-7.561-15.122-9.67c-9.188-2.813-25.875,7.406-27.938,12.938
	c-0.241,0.646-0.531,1.157-0.846,1.567l1.687,24.914c2.38-1.623,9.464-6.059,20.083-9.296
	C291.588,236.006,306.656,236.695,310.675,236.959z M215.926,447.436c0.373,0.901,0.774,1.872,1.24,2.972
	c0.204,0.481,0.439,0.908,0.688,1.305c1.607-0.416,5.68-1.694,7.1-4.164c1.912-4.514,5.173-9.614,10.591-12.032
	c7.232-3.228,10.802-3.452,12.415-3.21l-0.471-2.164c-0.647-0.565-3.018-2.773-4.01-5.603c-0.65-1.854-1.419-2.735-1.855-3.115
	c-0.045,0.01-0.089,0.02-0.143,0.013c-0.031,0-0.062-0.004-0.093-0.01c-0.043-0.008-0.084-0.021-0.123-0.036
	c-0.369-0.146-10.759-4.195-17.93-1.6c-7.258,2.625-10.906,10.093-10.942,10.168c-0.014,0.03-0.031,0.06-0.05,0.086
	c-0.129,0.186-2.8,4.128-0.515,8.477C213.76,442.197,214.668,444.395,215.926,447.436z M244.16,443.493
	c1.388-1.08,1.556-3.213,1.704-5.095c0.054-0.681,0.104-1.323,0.209-1.892c0.222-1.195,0.818-2.252,1.637-3.033
	c-1.239-0.154-4.321-0.029-10.742,2.724c-1.026,1.158-2.337,3.077-2.044,5.096c0.357,2.464,5.155,3.847,7.309,4.277
	C242.824,444.735,243.485,444.018,244.16,443.493z M240.482,210.526c0.766-1.423,1.854-4.471,2.604-6.715
	c0.333,3.354-0.01,6.48-0.015,6.527c-0.037,0.327,0.198,0.621,0.524,0.658c0.325,0.047,0.622-0.197,0.658-0.524
	c0.028-0.242,0.547-4.983-0.349-9.219c0.003-0.01,0.005-0.019,0.008-0.028c0.061-0.213-0.002-0.433-0.147-0.581
	c-0.179-0.721-0.404-1.421-0.683-2.072c-1.488-3.473-3.182-12.079-0.564-17.186c1.109-2.164,2.893-3.533,5.3-4.068
	c6.533-1.452,8.923-0.928,12.542-0.133c1.9,0.417,4.264,0.937,7.73,1.272c10.196,0.986,14.429-1.767,21.033-6.721
	c3.408-2.555,8.156-3.087,11.552-1.29c2.923,1.547,4.433,4.572,4.25,8.519c-0.166,3.59,0.527,6.227,1.531,8.149
	c0.011,0.044,0.026,0.087,0.048,0.129c0.026,0.051,0.058,0.096,0.095,0.135c2.028,3.65,5.156,4.577,5.204,4.59
	c0.318,0.088,0.644-0.096,0.731-0.412c0.09-0.315-0.094-0.644-0.409-0.734c-0.161-0.046-2.534-0.77-4.256-3.563
	c1.621-0.624,6.354-1.883,9.813,2.875c2.763,3.798,1.336,10.99-1.502,16.822c-2.33,0.418-7.061,0.781-14.516-5.668
	c-8.344-7.219-29.719-6.281-37.5-1.312c-7.781,4.969-8.25,10.688-10.313,17.531c-1.555,5.16,1.153,8.396,3.464,7.308l0.187,2.762
	c-2.057,0.209-9.622,0.657-14.252-3.444C237.631,219.155,239.675,212.024,240.482,210.526z M260.626,183.318
	c0.242,0.114,5.71,2.66,13.569,2.66c0.448,0,0.904-0.008,1.367-0.026c8.805-0.332,10.828-4.598,10.91-4.78
	c0.135-0.298,0.002-0.646-0.294-0.783c-0.296-0.137-0.649-0.006-0.789,0.29c-0.018,0.038-1.873,3.782-9.872,4.084
	c-8.271,0.306-14.322-2.493-14.382-2.521c-0.296-0.142-0.652-0.013-0.792,0.284S260.329,183.177,260.626,183.318z M330.126,313.65
	l6.71,10.778c-0.664-1.709-1.494-3.621-2.436-5.322C333.277,317.078,331.602,315.143,330.126,313.65z M286.389,312.884
	c-1.303-0.271-2.546-0.531-3.642-0.733l-0.044,8.213c5.497,3.78,16.805,4.782,25.05,3.591l-1.932-9.728
	C300.834,315.899,292.528,314.164,286.389,312.884z M279.734,503.498H241.84c-1.787,0-2.812,1.032-2.812,2.831v7.591
	c0,0.329,0.267,0.596,0.595,0.596s0.595-0.267,0.595-0.596v-7.591c0-1.149,0.485-1.64,1.622-1.64h37.894
	c0.329,0,0.595-0.267,0.595-0.596S280.063,503.498,279.734,503.498z M290.607,503.498h-5.88c-0.329,0-0.595,0.267-0.595,0.596
	s0.267,0.596,0.595,0.596h5.88c0.329,0,0.595-0.267,0.595-0.596S290.936,503.498,290.607,503.498z M195.24,508.753
	c1.569,0,2.262-0.117,2.819-0.212c0.382-0.064,0.696-0.112,1.088-0.112c0.601,0,1.383,0.111,2.873,0.438
	c1.922,0.422,4.034,1.306,6.27,2.242c2.596,1.087,5.28,2.21,7.914,2.718c4.728,0.913,7.638,1.162,8.9,1.269
	c0.847-0.456,5.313-3.065,5.836-7.633l-38.155,0.11C193.228,508.382,193.576,508.753,195.24,508.753z M215.979,514.997
	c3.433,0.662,5.922,0.979,7.53,1.146c-2.14,1.133-6.996,2.777-14.578,0.285c-5.387-1.77-10.478-1.109-15.869-0.413
	c-1.667,0.216-3.392,0.439-5.119,0.584c-3.139,0.262-6.59,0.232-9.929,0.204c-4.185-0.034-8.136-0.068-10.799,0.502
	c-0.977,0.209-1.461,0.205-1.681,0.175c0.309-0.454,1.486-1.393,2.869-1.803c0.616-0.183,1.024-0.495,1.214-0.929
	c0.315-0.721-0.072-1.506-0.419-2.21c-0.206-0.416-0.488-0.986-0.399-1.21c0.031-0.078,0.154-0.162,0.339-0.231
	c0.847-0.32,1.759,0.119,2.725,0.577c1.247,0.594,2.799,1.332,4.072-0.151c0.817-0.954,0.982-2.027,1.114-2.891
	c0.062-0.402,0.125-0.816,0.247-1.015l1.225-0.004c0.022,0.007,0.044,0.013,0.066,0.02c1.18,0.358,1.823,1.193,2.34,1.865
	c0.457,0.594,0.913,1.139,1.576,1.128c0.608-0.022,1.164-0.5,1.917-1.646c0.313-0.476,0.559-0.94,0.761-1.385l6.258-0.019
	c0.055,0.101,0.108,0.2,0.16,0.298c0.563,1.064,1.096,2.069,3.643,2.069c1.669,0,2.449-0.133,3.019-0.229
	c0.777-0.132,1.167-0.199,3.507,0.314c1.816,0.399,3.88,1.264,6.065,2.178C210.482,513.318,213.224,514.465,215.979,514.997z
	 M206.251,514.473c0.061-0.323-0.151-0.635-0.474-0.696c-0.021-0.004-2.086-0.401-5.145-1.372c-2.65-0.843-3.834-0.208-5.333,0.595
	c-0.424,0.227-0.888,0.476-1.441,0.719c-1.244,0.545-1.875-0.079-2.632-1.021c-0.33-0.41-0.615-0.765-1.025-0.853
	c-0.575-0.128-1.029,0.287-1.509,0.724c-0.567,0.516-1.209,1.1-2.141,1.1c-0.607,0-1.02-0.155-1.383-0.293
	c-0.864-0.326-1.554-0.458-2.56,0.818c-0.201,0.255-0.459,0.381-0.814,0.397c-1.196,0.042-2.822-1.119-3.4-1.729
	c-0.227-0.239-0.604-0.248-0.841-0.023c-0.239,0.227-0.249,0.604-0.023,0.842c0.663,0.7,2.533,2.104,4.189,2.104
	c0.043,0,0.086-0.001,0.129-0.003c0.696-0.032,1.282-0.326,1.695-0.851c0.543-0.689,0.619-0.662,1.204-0.44
	c0.413,0.156,0.979,0.37,1.804,0.37c1.393,0,2.325-0.849,2.942-1.411c0.151-0.137,0.347-0.315,0.471-0.397
	c0.093,0.094,0.229,0.262,0.334,0.393c0.652,0.812,1.866,2.322,4.039,1.365c0.584-0.258,1.075-0.52,1.523-0.759
	c1.444-0.774,2.239-1.199,4.412-0.51c3.126,0.992,5.196,1.391,5.282,1.407C205.882,515.009,206.19,514.795,206.251,514.473z
	 M168.719,509.983c1.319-0.494,2.559,0.096,3.654,0.618c1.403,0.668,2.037,0.87,2.656,0.147c0.597-0.695,0.727-1.545,0.841-2.295
	c0.044-0.288,0.087-0.569,0.156-0.831l-8.974,0.025c-0.617,0.33-1.106,0.826-1.321,1.653c-0.253,0.971,0.855,1.858,1.889,2.431
	c-0.049-0.285-0.038-0.567,0.07-0.84C167.851,510.484,168.197,510.179,168.719,509.983z M182.473,509.439
	c0.008-0.007,0.273-0.081,0.951-1.112c0.161-0.244,0.302-0.487,0.428-0.727l-3,0.008c0.421,0.393,0.743,0.81,1.017,1.166
	C182.072,509.038,182.351,509.401,182.473,509.439z M168.867,505.834c0.061-0.013,0.121-0.026,0.18-0.04
	c-0.172-0.141-0.376-0.297-0.548-0.429c-1.003-0.766-2.251-1.719-2.251-2.867c0-0.42,0.162-0.794,0.47-1.082
	c0.932-0.873,3.013-0.811,5.433-0.653c0.167,0.012,0.327,0.021,0.478,0.031c-0.263-0.34-0.682-0.794-0.995-1.133
	c-0.735-0.797-1.496-1.62-1.77-2.305c-0.229-0.571-0.069-0.927,0.105-1.124c0.525-0.596,1.582-0.32,3.332,0.137
	c0.813,0.212,1.733,0.452,2.565,0.575c0.365,0.054,0.545,0,0.579-0.049c0.186-0.279-0.192-1.46-0.778-2.431
	c-0.135-0.223-0.109-0.508,0.064-0.702c0.173-0.196,0.452-0.255,0.69-0.148c0.03,0.014,3.043,1.369,4.75,1.749
	c0.066,0.014,0.123,0.017,0.143,0.004c0.175-0.112,0.321-0.794,0.417-1.245c0.239-1.122,0.567-2.658,2.083-2.934
	c1.424-0.255,3.361,0.859,5.238,1.94c0.906,0.521,2.29,1.315,2.636,1.254c0.143-0.048,0.34-0.157,0.568-0.284
	c1.238-0.686,3.31-1.834,7.227,1.28c3.321,2.642,6.64,2.445,11.665,2.148c1.248-0.074,2.586-0.153,4.034-0.192
	c4.788-0.14,11.509,1.301,14.941,4.756c0.135,0.136,0.263,0.272,0.384,0.411c-0.624-2.512-2.023-5.614-5.132-7.862
	c-4.333-3.133-7.825-2.825-11.521-2.5c-1.573,0.139-3.202,0.28-4.867,0.128c-4.875-0.452-5.83-2.396-6.672-4.113
	c-0.141-0.286-0.28-0.572-0.44-0.848c-0.125-0.218-0.233-0.306-0.292-0.315c-0.22-0.018-0.75,0.417-1.099,0.718
	c-0.593,0.513-1.198,1.053-1.917,0.983c-1.147-0.095-1.667-0.922-2.219-1.799c-0.198-0.314-0.414-0.659-0.686-1.012
	c-0.057-0.074-0.089-0.091-0.089-0.091c-0.133,0.015-0.542,0.401-0.787,0.632c-0.63,0.596-1.418,1.34-2.389,1.059
	c-1.035-0.296-1.242-0.836-1.482-1.461c-0.184-0.48-0.437-1.138-1.207-2.121c-0.781-0.999-1.995-2.188-3.338-2.188c0,0,0,0-0.001,0
	c-0.882,0-1.749,0.536-2.574,1.593c-2.43,3.109-4.104,3.646-6.634,2.13c-0.57-0.342-1.486-0.493-2.461-0.493
	c-1.189,0-2.467,0.225-3.315,0.6c-0.574,0.254-0.761,0.491-0.781,0.591c-0.063,0.315,0.521,1.215,0.908,1.811
	c0.723,1.112,1.471,2.263,1.037,3.188c-0.248,0.527-0.792,0.834-1.665,0.937l-0.169,0.021c-2.019,0.236-3.613,0.423-4.094,1.105
	c-0.202,0.287-0.231,0.721-0.092,1.326c0.478,2.069,0.172,3.175-0.29,4.85c-0.154,0.558-0.329,1.193-0.504,1.969
	c-0.49,2.169,0.787,4.211,1.359,4.989C167.696,506.095,168.317,505.956,168.867,505.834z M188.794,505.003
	c-1.08-0.603-1.661-0.768-1.973-0.768c-0.086,0-0.152,0.014-0.203,0.033c-0.301,0.117-0.512,0.76-0.757,1.505
	c-0.065,0.2-0.135,0.41-0.211,0.63l4.962-0.015C190.203,505.94,189.638,505.475,188.794,505.003z M229.278,502.931
	c1.02,1.025,1.587,2.147,1.693,3.342l-38.86,0.112c-0.496-0.75-1.267-1.601-2.737-2.421c-1.533-0.856-2.457-1.089-3.188-0.805
	c-0.824,0.321-1.116,1.212-1.455,2.242c-0.102,0.311-0.213,0.648-0.348,1.006l-5.703,0.017c-0.775-0.207-1.338-0.204-1.778,0.005
	l-6.477,0.019c0.069-0.098,0.105-0.198,0.124-0.289c0.129-0.625-0.451-1.068-1.328-1.739c-0.71-0.542-1.784-1.361-1.784-1.921
	c0-0.092,0.025-0.149,0.093-0.213c0.358-0.335,1.33-0.427,2.353-0.427c0.783,0,1.596,0.054,2.188,0.093
	c0.289,0.019,0.558,0.037,0.797,0.049c0.562,0.026,0.939-0.142,1.109-0.505c0.326-0.695-0.389-1.47-1.471-2.642
	c-0.538-0.582-1.137-1.231-1.438-1.764c0.468,0.05,1.291,0.265,1.93,0.431c0.842,0.22,1.795,0.469,2.692,0.602
	c1.03,0.149,1.517-0.225,1.744-0.567c0.395-0.594,0.244-1.462-0.033-2.227c1.059,0.432,2.477,0.968,3.509,1.197
	c0.395,0.086,0.747,0.036,1.045-0.156c0.592-0.381,0.76-1.166,0.938-1.998c0.242-1.135,0.452-1.888,1.132-2.011
	c0.993-0.183,2.899,0.917,4.431,1.8c1.794,1.035,2.847,1.608,3.595,1.355c0.26-0.087,0.513-0.227,0.781-0.376
	c1.102-0.61,2.611-1.45,5.908,1.171c3.678,2.926,7.369,2.706,12.476,2.405c1.237-0.073,2.562-0.151,3.996-0.191
	C220.76,498.373,226.55,500.185,229.278,502.931z M225.867,504.331c-0.867-0.759-10.702-4.271-15.248-3.005
	c-4.298,1.199-6.685,0.462-8.947-1.017c-1.999-1.308-3.293,0.113-4.148,1.054c-0.428,0.471-0.89,0.938-1.204,0.936
	c-0.734-0.046-1.077-0.28-1.905-0.845c-0.666-0.454-1.578-1.077-3.123-1.871c-3.83-1.969-4.981-0.958-7.517,1.273
	c-1.882,1.658-3.727,0.831-4.614,0.433c-0.153-0.069-0.277-0.123-0.366-0.152c-0.249-0.085-1.005-0.336-2.95,2.296
	c-0.196,0.264-0.14,0.637,0.125,0.832c0.265,0.197,0.638,0.141,0.833-0.125c0.626-0.847,1.393-1.662,1.716-1.834
	c0.045,0.02,0.097,0.043,0.156,0.069c0.938,0.42,3.429,1.539,5.9-0.636c2.415-2.125,3.064-2.695,6.172-1.098
	c1.479,0.761,2.356,1.359,2.996,1.796c0.868,0.592,1.441,0.983,2.502,1.049c0.891,0.077,1.542-0.645,2.159-1.322
	c0.936-1.027,1.52-1.575,2.616-0.858c2.996,1.958,5.869,2.298,9.919,1.167c3.919-1.094,13.306,2.086,14.145,2.756
	c0.113,0.098,0.251,0.146,0.39,0.146c0.166,0,0.33-0.069,0.448-0.204C226.14,504.924,226.115,504.548,225.867,504.331z
	 M521.117,470.467h-2.029H496.48h-1.432c-0.319,0.174-0.558,0.37-0.731,0.563v31.414c2.023,0.1,9.378,0.262,14.747-2.229
	c5.389-2.499,10.435-2.585,12.187-2.526v-27.036C521.207,470.587,521.162,470.522,521.117,470.467z M478.192,469.222h14.934v-2.109
	v-2.53v-13.46l-14.934-0.001V469.222z M182.208,334.297c19.106,16.583,10.455,26.787-3.878,43.692
	c-15.063,17.766,3.507,43.601,3.697,43.859l1.937-1.416c-0.178-0.244-17.657-24.551-3.803-40.891
	c14.234-16.79,24.519-28.92,3.622-47.058c-18.654-16.189-16.821-31.879-13.141-43.739c3.216-10.364,9.308-15.505,9.367-15.554
	l-1.525-1.853c-0.271,0.224-6.692,5.605-10.134,16.696C164.755,299.612,162.283,317.004,182.208,334.297z M176.233,301.787
	c1.896,15.198,17.447,25.433,18.108,25.86l1.305-2.014c-0.153-0.099-15.284-10.072-17.033-24.154
	c-0.899-7.237,1.88-14.395,8.26-21.273c24.487-26.4,5.43-46.819,5.235-47.022l-1.729,1.663c0.18,0.187,17.699,18.97-5.265,43.728
	C178.226,286,175.238,293.81,176.233,301.787z M386.381,257.582c-0.469-0.518-11.257-12.893,8.171-30.554
	c18.35-16.681,8.974-29.365-0.093-41.631c-1.55-2.097-3.152-4.265-4.592-6.422c-9.145-13.718,0.66-26.927,1.082-27.483l-1.909-1.455
	c-0.113,0.149-11.277,15.106-1.169,30.269c1.471,2.207,3.091,4.398,4.657,6.518c9.205,12.452,17.154,23.206,0.408,38.429
	c-7.838,7.125-11.978,14.371-12.304,21.534c-0.347,7.606,3.8,12.222,3.977,12.415L386.381,257.582z M371.89,275.009
	c-0.123-0.2-12.257-20.075-5.283-30.188c0.82-1.188,1.685-2.399,2.563-3.629c7.353-10.297,15.686-21.969,6.747-32.695l-1.844,1.536
	c7.753,9.304,0.326,19.706-6.856,29.765c-0.885,1.24-1.758,2.461-2.584,3.661c-7.855,11.39,4.68,31.943,5.217,32.812L371.89,275.009
	z"></path>
<path id="color_x5F_3" fill="#f89d80" d="M234.972,414.821c-0.993-0.437-1.953-0.795-2.84-1.089c1.149-1.753,1.977-3.698,2.482-5.38
	c1.037-3.456,27.701-35.716,31.873-40.75c0.273,4.067,0.484,8.266,0.597,12.523c-1.702,2.065-17.228,20.952-21.252,27.102
	c-3.201,4.893-4.354,9.858-4.744,12.196C239.945,418.153,237.772,416.054,234.972,414.821z M460.934,302.771
	c0.133-0.662,0.168-1.328,0.17-1.828c-1.064,0.331-2.831,0.621-5.772,0.768c-0.218,2.084-1.477,9.045-8.65,9.444
	c-4.837,0.269-8.22,0.124-9.827,0.735c3.379,1.874,7.965,2.682,14.763,0.851c9.235-2.488,10.545-5.064,10.727-5.66
	C461.91,306.378,460.652,304.181,460.934,302.771z M259.018,458.918c-3.375-0.656-8.063-2.906-12.844-3.563
	c-3.853-0.529-3.553-6.603-3.155-8.837c-1.1,1.665-1.843,3.854-1.547,6.173c0.001,0.006,0.001,0.012,0.002,0.019
	c0.003,0.031,0.003,0.063,0.001,0.096c0.025,0.752,0.273,4.947,3.083,6.981c2.169,1.571,4.824,2.091,6.956,2.508
	c1.064,0.209,1.984,0.389,2.714,0.665c1.742,0.658,3.98,1.045,5.055,0.425c0.187-0.107,0.331-0.241,0.436-0.406
	c-0.289-0.057-0.563-0.146-0.821-0.266c-2.247-1.051-7.987-4.269-8.23-4.404c-0.287-0.161-0.389-0.524-0.228-0.811
	c0.161-0.287,0.525-0.389,0.81-0.229c0.06,0.033,5.945,3.333,8.153,4.365c0.882,0.412,2.169,0.257,3.358-0.407
	c1.001-0.559,1.729-1.367,1.988-2.185c-0.391-0.16-0.859-0.363-1.407-0.611C262.138,458.986,260.591,459.224,259.018,458.918z
	 M426.091,299.261c0.01,0,0.018,0.002,0.028,0.003c20.28,1.915,32.79,1.576,35.103,0.408c0.03-0.035,0.069-0.061,0.107-0.088
	c-2.069-1.487-6.19-2.953-12.233-4.371c-7.534-1.665-18.308-3.504-31.899-5.091c-14.895-1.739-26.581-2.404-34.358-2.404
	c-0.383,0-0.754,0.002-1.118,0.005c-4.799,0.116-8.119,0.59-9.741,1.427c1.495,1.802,17.389,5.931,44.273,9.069
	C419.708,298.623,422.99,298.968,426.091,299.261z M217.854,451.712c1.512,2.412,3.698,3.351,4.728,3.669
	c0.243-1.314,0.919-4.404,2.372-7.832C223.535,450.018,219.461,451.296,217.854,451.712z M260.619,449.046
	c2.101,2.081,4.979,5.175,5.009,6.544c0.017,0.77-0.396,1.495-1.08,2.083c0.389,0.175,0.739,0.327,1.037,0.448
	c0.048,0.013,0.093,0.031,0.135,0.055c0.425,0.169,0.735,0.272,0.906,0.296c0.12-0.057,0.278-0.153,0.451-0.285
	c0.018-0.017,0.038-0.032,0.058-0.046c0.355-0.281,0.751-0.703,1.002-1.204l-2.893-4.751
	C263.872,451.173,262.212,450.066,260.619,449.046z M223.714,455.829c0.931,0.553,3.889,1.983,7.698,0.61
	c3.444-1.242,6.038-3.057,7.215-3.972c-1.912-0.935-5.354-2.779-11.677-6.327C224.814,450.401,223.941,454.581,223.714,455.829z
	 M234.924,441.293c-0.292-2.019,1.018-3.938,2.044-5.096c-0.308,0.132-0.615,0.263-0.938,0.407
	c-3.903,1.741-6.639,5.063-8.526,8.481c4.023,2.255,9.945,5.503,12.375,6.679c0.069,0.019,0.135,0.049,0.194,0.093
	c0.05,0.023,0.099,0.046,0.145,0.068c-0.081-2.397,0.805-4.645,2.015-6.356C240.079,445.14,235.281,443.757,234.924,441.293z
	 M239.54,419.526c-1.158-1.168-2.925-2.681-5.048-3.615c-1.084-0.477-2.133-0.856-3.088-1.16c-0.933,1.21-2.038,2.269-3.318,2.998
	C232.506,417.583,236.972,418.716,239.54,419.526z M432.806,288.384c-0.041,0.025-0.081,0.043-0.122,0.066
	c7.637,1.277,13.489,2.56,16.953,3.385c0.223,0.053,0.432,0.104,0.647,0.156c0.003-0.12,0.004-0.258,0.004-0.404
	c-0.674-0.723-1.896-1.834-3.495-2.407c-2.268-0.813-7.727-3.653-9.544-5.182C435.909,286.04,434.114,287.576,432.806,288.384z
	 M451.928,313.892c-2.809,0.757-5.264,1.085-7.425,1.085c-3.586,0-6.362-0.908-8.627-2.261c-0.199,0.519-0.045,1.247,0.492,2.283
	c2.168,4.175-20.063,8.813-38.438,7.125c-17.992-1.653-24.301,5.502-32.742,9.096c1.429,4.056,2.86,8.328,4.208,12.672
	c1.368-1.901,5.969-8.146,10.696-12.873c5.632-5.632,9.399-7.745,9.557-7.832c0.288-0.16,0.65-0.054,0.809,0.232
	c0.159,0.287,0.056,0.649-0.231,0.809c-0.038,0.021-3.794,2.135-9.292,7.633c-3.988,3.988-7.903,9.096-9.799,11.666
	c6.564-2.533,26.308-9.846,43.237-12.995l0.245-0.046c19.815-3.687,40.305-7.498,42.895-10.697c1.534-1.896,1.838-2.989,2.105-3.955
	c0.202-0.728,0.393-1.414,1.027-2.235c0.835-1.081,0.676-2.674,0.515-3.503C459.495,311.262,456.683,312.61,451.928,313.892z
	 M432.181,287.372c1.191-0.736,2.831-2.132,4.052-3.976c-0.914-0.263-2.72-0.583-4.154,0.38c-0.308,0.412-0.615,0.809-0.902,1.168
	c-0.311,0.389-0.59,0.74-0.793,1.031c-0.063,0.102-0.127,0.2-0.191,0.295c-0.174,0.31-0.051,0.834,0.271,1.149
	C430.875,287.817,431.483,287.801,432.181,287.372z M428.679,287.809c0.221,0.034,0.435,0.068,0.653,0.102
	c-0.087-0.127-0.16-0.262-0.22-0.401C428.971,287.629,428.825,287.716,428.679,287.809z M296.324,302.343
	c-0.923,0.156-1.832,0.231-2.724,0.231c-4.585,0-8.739-1.98-12.393-4.925l0.297,2.651c2.318,2.278,10.331,9.183,19.863,6.426
	c9.483-2.743,13.2-16.17,14.165-20.504l-1.406-5.637C312.021,289.782,307.231,300.494,296.324,302.343z M301.666,201.289
	c-8.344-7.219-29.719-6.281-37.5-1.312c-7.781,4.969-8.25,10.688-10.313,17.531c-1.555,5.16,1.153,8.396,3.464,7.308l-0.395-5.835
	c-0.475-7.015,9.477-12.099,18.143-14.322c9.439-2.421,20.847-2.34,23.584,3.561l5.264,11.343c1.008-0.496,3.556-1.956,7.402-5.565
	c1.748-1.641,3.474-4.18,4.866-7.041C313.852,207.375,309.12,207.738,301.666,201.289z M426.769,287.065
	c0.209,0.053,0.45,0.077,0.73,0.004c0.44-0.116,1.024-0.473,1.666-1.4c0.001-0.002,0.002-0.004,0.003-0.006
	c0.069-0.118,0.15-0.242,0.241-0.373c0.018-0.03,0.037-0.071,0.056-0.103c-1.727,0.522-3.48,0.55-3.766,0.899
	C425.546,286.273,426.058,286.655,426.769,287.065z M287.229,209.352c6.89,2.109,12.664,7.237,15.122,9.67l-4.781-10.301
	c-1.428-3.077-5.924-4.366-11.315-4.366c-3.455,0-7.276,0.529-10.894,1.458c-8.874,2.275-17.649,7.205-17.251,13.088l0.336,4.955
	c0.315-0.409,0.605-0.921,0.846-1.567C261.353,216.758,278.041,206.539,287.229,209.352z"></path>
<path id="color_x5F_4" fill="#dc3545" d="M494.317,470.467h0.731c-0.319,0.174-0.558,0.37-0.731,0.563V470.467z M509.564,501.295
	c-4.412,2.047-9.938,2.394-13.179,2.394c-0.886,0-1.593-0.026-2.068-0.05v14.026h25.67c0.31-0.724,0.746-1.771,1.263-3.092v-15.689
	C519.658,498.834,514.72,498.904,509.564,501.295z M151.517,516.707c-0.498,0.521-1.125,0.771-1.927,0.852
	c-0.959,0.096-1.82-0.025-2.559-0.244c-0.352-0.06-2.771-0.431-5.104,0.069c-0.287,0.062-0.603,0.148-0.94,0.241
	c-0.046,0.013-0.098,0.026-0.146,0.039h14.85c-0.856-0.118-1.696-0.346-2.453-0.557
	C152.593,516.927,151.978,516.755,151.517,516.707z M267.126,381.948c-3.754,4.574-16.7,20.432-20.298,25.931
	c-3.436,5.251-4.428,10.707-4.669,12.446c0.57,0.414,1.612,1.448,2.444,3.82c1.017,2.901,3.775,5.191,3.802,5.215
	c0.104,0.085,0.176,0.202,0.204,0.333l0.604,2.775c0.577-0.251,1.198-0.39,1.836-0.39c0.457,0,1.342,0.308,2.574,0.862
	c0.348-0.306,0.973-0.612,1.523-0.78c0.979-0.3,2.488-0.452,4.119,0.526c2.536,1.523,4.84,5.338,5.223,5.993
	c0.564,0.315,1.135,0.635,1.721,0.964c-0.379-15.539-0.225-28.182,0.458-37.588C267.149,395.454,267.261,388.649,267.126,381.948z
	 M521.251,470.653v-0.186h-0.134C521.162,470.522,521.207,470.587,521.251,470.653z M208.558,517.56
	c-5.129-1.686-10.09-1.042-15.344-0.363c-1.3,0.168-2.639,0.331-3.989,0.468h19.671C208.783,517.628,208.673,517.597,208.558,517.56
	L208.558,517.56z M109.931,136.344c26.303,0,47.625-13.431,47.625-30c0-16.569-21.323-30-47.625-30
	c-26.303,0-47.625,13.431-47.625,30C62.306,122.913,83.628,136.344,109.931,136.344z M522.442,511.407v-42.111v-2.184v-2.53
	c0-0.711-0.46-1.171-1.171-1.171h-26.954v-12.29h0.986c0.329,0,0.596-0.267,0.596-0.596s-0.267-0.596-0.596-0.596
	c-0.729,0-0.986-0.258-0.986-0.986v-3.791c0-0.329-0.267-0.596-0.596-0.596c-0.289,0-0.53,0.207-0.584,0.479l-14.957-0.001
	c-0.055-0.272-0.296-0.479-0.584-0.479c-0.329,0-0.596,0.267-0.596,0.596v3.791c0,0.729-0.258,0.986-0.985,0.986
	c-0.329,0-0.596,0.267-0.596,0.596s0.267,0.596,0.596,0.596h0.985v18.696v47.847h-4.809c0.181-0.362,0.285-0.759,0.285-1.178v-14.28
	c0-1.634-1.532-2.964-3.415-2.964h-22.681v-4.954c0-0.329-0.267-0.596-0.596-0.596h-8.376c-0.035,0-0.07,0.004-0.105,0.01
	l-15.384,2.774c-0.283,0.051-0.49,0.298-0.49,0.586v2.18h-23.938v-2.18c0-0.288-0.207-0.535-0.49-0.586l-1.992-0.359
	c-5.462-38.811-16.513-115.733-21.013-135.388c-1.155-5.047-2.593-10.268-4.162-15.417c3.562-1.411,25.916-10.106,44.754-13.611
	l0.246-0.046c21.858-4.065,40.735-7.577,43.603-11.117c1.69-2.089,2.043-3.362,2.327-4.387c0.185-0.664,0.33-1.189,0.821-1.825
	c1.427-1.847,0.745-4.557,0.604-5.055c1.343-1.244,1.381-2.159,1.372-2.347c-0.005-0.105-0.038-0.207-0.096-0.296
	c-0.618-0.949-1.536-2.772-1.365-3.625c0.21-1.05,0.205-2.079,0.183-2.616c0.409-0.317,0.446-0.624,0.472-0.843
	c0.001-0.007-0.003-0.014-0.002-0.021c0.002-0.02,0.007-0.04,0.006-0.06c0.014-0.131,0.054-0.464,0.109-0.92l0.192-1.621
	c0.031-0.258,0.081-0.735-1.707-1.576c-0.065-0.819-0.385-2.807-1.949-4.574c-1.884-2.129-3.663-4.141-5.564-7.469
	c-2.096-3.668-9.354-3.141-9.665-3.117c-0.125,0.01-0.231,0.066-0.322,0.14c-3.067-1.984-4.681-3.824-5.014-4.225
	c-0.47-1.993-1.37-3.359-2.686-4.052c-1.21-0.638-2.46-0.538-3.215-0.378c-0.212-1.163-0.589-2.051-1.152-2.484
	c-0.926-0.711-2.146-0.94-3.339-0.624c-1.02,0.269-1.902,0.887-2.53,1.752c-0.327-0.454-0.742-0.832-1.246-1.14
	c-1.729-1.054-3.34-0.134-3.409-0.095c-0.037,0.021-0.071,0.047-0.104,0.076c-0.103,0.095-0.205,0.17-0.303,0.243
	c-0.425,0.315-0.781,0.634-1.021,1.372c-1.45-0.458-2.923-0.329-4.047,0.372c-0.966,0.602-2.14,1.911-2.25,4.729
	c-0.023,0.589-0.001,1.193,0.059,1.8c-0.046,0.164-0.476,1.269-3.625,1.447c-2.501,0.142-3.958,0.697-4.452,1.699
	c-0.294,0.595-0.201,1.298,0.262,1.979c1.061,1.562,3.839,2.833,5.828,2.675c1.852-0.151,3.019-1.154,3.662-1.945
	c0.709,1.424,1.536,2.467,2.286,2.783c-15.024-1.75-26.675-2.02-32.321-1.991c-14.021,0.019-14.177,1.355-14.235,1.858
	c-0.072,0.616-0.101,0.954-0.123,1.223c-0.032,0.381-0.053,0.617-0.18,1.368c-0.001,0.005,0.003,0.01,0.002,0.015
	c-0.001,0.006-0.005,0.01-0.006,0.016c-0.409,3.502,20.995,7.339,37.236,9.563c-10.825,0.602-32.231,1.726-38.295,1.556
	c-8.105-0.242-15.894,2.233-16.339,2.377c-0.476,0.084-5.57,0.996-8.086,1.783c-0.494,0.154-1.714,0.541-3.333,1.056
	c-3.594,1.14-10.565,3.353-14.682,4.618c-0.012,0.003-0.022,0.007-0.034,0.011c-1.267,0.39-2.258,0.688-2.792,0.836l-3.426-7.594
	l-6.263-25.114c0.354-1.942,0.594-3.757,0.757-5.337c3.908-2.373,10.268-15.489,6.454-24.01c-1.308-2.923-2.855-4.461-4.599-4.573
	c-0.636-0.041-1.228,0.114-1.758,0.371c-0.495-3.538-1.515-6.243-3.324-6.792c-0.008-0.058-0.005-0.117-0.03-0.171l-7.765-16.731
	c1.114-0.542,3.75-2.06,7.714-5.779c5.089-4.776,11.34-18.799,6.517-25.431c-3.984-5.482-9.591-3.897-11.341-3.223
	c-0.802-1.72-1.336-4.051-1.19-7.191c0.205-4.433-1.529-7.852-4.883-9.626c-3.786-2.004-9.059-1.432-12.823,1.39
	c-6.368,4.776-10.445,7.429-20.204,6.488c-3.394-0.329-5.623-0.818-7.589-1.25c-3.773-0.83-6.266-1.376-13.055,0.134
	c-2.771,0.615-4.823,2.192-6.102,4.687c-2.962,5.78-0.877,14.917,0.529,18.197c0.288,0.672,0.513,1.407,0.687,2.17
	c-0.513,1.686-2.24,6.889-3.241,8.75c-1.415,2.626-2.616,10.065,3.029,15.064c3.693,3.272,8.938,3.884,12.348,3.884
	c1.202,0,2.175-0.076,2.774-0.139l1.431,21.138c0.008,0.122,0.059,0.229,0.131,0.322c-1.442,1.329-1.612,3.776-1.063,6.681
	c-0.696-0.078-1.429-0.012-2.106,0.341c-1.549,0.807-2.343,2.839-2.358,6.041c-0.047,9.556,10.993,18.803,15.619,19.357
	c2.651,4.662,6.247,9.921,10.643,13.87l1.678,14.953l-0.049,8.939c-0.355,0.262-1.638,1.019-5.714,2.184
	c-0.331,0.095-0.67,0.187-1.019,0.278c-0.013,0.003-0.025,0.006-0.037,0.01c-5.281,1.377-12.286,2.352-12.84,2.428
	c-0.905,0.02-12.248,0.646-23.967,19.017c-6.378,9.998-10.883,25.644-14.858,39.448c-3.389,11.768-6.315,21.93-9.351,24.532
	c-6.558,5.621-3.111,19.158-2.515,21.298c-0.631,1.027-2.756,5.052-0.435,9.47c1.905,3.625,2.805,5.802,4.051,8.813
	c0.374,0.904,0.776,1.878,1.244,2.981c1.939,4.575,5.946,5.635,6.757,5.805c0.692,0.461,4.273,2.586,8.99,0.882
	c4.182-1.508,7.116-3.779,8.018-4.53c0.181,0.077,0.335,0.138,0.467,0.187c0.08,1.352,0.57,5.373,3.559,7.537
	c2.382,1.725,5.179,2.271,7.426,2.712c1.012,0.197,1.885,0.369,2.521,0.609c0.671,0.255,4.124,1.465,6.072,0.343
	c0.545-0.314,0.925-0.788,1.116-1.385c0.767-0.075,1.572-0.332,2.347-0.764c1.258-0.702,2.16-1.718,2.524-2.808
	c0.694,0.226,0.931,0.21,1.052,0.175c0.101,2.429,0.18,4.935,0.242,7.479h-15.379c-0.329,0-0.595,0.267-0.595,0.596v3.827
	c0,0.329,0.267,0.596,0.595,0.596h1.343v12.049c0,5.097,3.622,9.363,8.428,10.361v4.7h-22.681c-1.883,0-3.414,1.33-3.414,2.964
	v14.28c0,0.419,0.103,0.816,0.285,1.178h-12.725c1.544-0.648,2.408-1.334,2.582-1.482c0.892-0.46,6.375-3.521,6.578-9.284
	c0.034-0.491,0.476-8.465-6.104-13.223c-4.693-3.393-8.571-3.053-12.323-2.721c-1.591,0.14-3.095,0.271-4.652,0.128
	c-4.21-0.391-4.94-1.878-5.713-3.452c-0.153-0.312-0.305-0.62-0.479-0.92c-0.299-0.518-0.678-0.817-1.125-0.893
	c-0.781-0.135-1.467,0.466-2.075,0.991c-0.329,0.285-0.822,0.745-1.038,0.697c-0.531-0.044-0.8-0.436-1.311-1.246
	c-0.216-0.344-0.454-0.72-0.749-1.104c-0.258-0.335-0.568-0.519-0.922-0.547c-0.653-0.054-1.195,0.457-1.716,0.949
	c-0.432,0.408-0.921,0.868-1.245,0.779c-0.463-0.133-0.49-0.202-0.698-0.743c-0.199-0.52-0.5-1.304-1.38-2.429
	c-1.354-1.73-2.833-2.645-4.276-2.645c0,0-0.001,0-0.001,0c-1.268,0-2.449,0.69-3.512,2.051c-2.344,3-3.396,2.853-5.083,1.841
	c-1.647-0.988-4.986-0.796-6.87,0.039c-0.857,0.379-1.351,0.866-1.466,1.446c-0.158,0.791,0.442,1.715,1.078,2.692
	c0.415,0.639,1.11,1.708,0.957,2.035c-0.04,0.085-0.254,0.204-0.726,0.26l-0.169,0.02c-2.404,0.281-4.141,0.485-4.928,1.604
	c-0.408,0.579-0.499,1.324-0.279,2.278c0.41,1.775,0.166,2.66-0.277,4.266c-0.158,0.573-0.338,1.226-0.518,2.023
	c-0.568,2.514,0.73,4.786,1.452,5.808c-0.65,0.455-1.186,1.115-1.448,2.117c-0.642,2.462,2.71,3.968,3.689,4.35
	c0.155,0.326,0.333,0.75,0.258,0.923c-0.04,0.092-0.212,0.19-0.461,0.264c-1.618,0.479-3.828,1.926-3.791,3.128h-6.636
	c0.41-0.068,0.813-0.179,1.2-0.369c2.873-1.412,6.453-17.526,5.395-24.284c-0.274-1.747-1.108-3.079-2.479-3.961
	c-3.598-2.312-9.639-0.656-9.895-0.586c-0.018,0.005-0.036,0.011-0.053,0.018c-1.606-2.272-3.67-2.93-4.599-3.114
	c-0.729-0.145-1.463-0.16-2.178-0.077c-0.181-0.599-0.663-1.816-1.957-4.276c-1.27-2.412-3.234-5.177-4.937-5.702
	c-0.604-0.186-1.051-0.055-1.32,0.089c-1.604,0.852-3.095,4.432-2.927,5.439c0.052,0.309,0.218,0.479,0.35,0.566
	c0.335,0.227,0.711,0.14,1.146,0.041c0.733-0.168,1.842-0.419,3.431,0.376c2.071,1.036,2.981,3.544,3.262,4.505
	c-1.029,0.641-1.883,1.525-2.402,2.606c-1.117-0.29-3.738-0.69-6.417,0.967c-3.353,2.073-3.04,9.026-1.365,20.335
	c0.55,3.714,1.652,6.064,3.369,7.184c0.148,0.096,0.299,0.168,0.45,0.243h-13.683v-44.689c0-0.166-0.069-0.325-0.192-0.438
	l-2.081-1.917c0.014-0.025,0.038-0.043,0.048-0.071c0.039-0.105,0.941-2.613,0.058-5.854c-0.733-2.688,3.969-10.969,11.968-16.896
	c4.82-3.573,4.541-7.769,3.945-9.951c-0.768-2.812-2.807-5.145-4.049-5.275c-0.625-0.067-1.479-0.16-11.229,15.305
	c-4.285,6.797-8.427,13.673-9.196,14.952l-2.629-2.422c0.225-0.823,0.637-2.904-0.06-5.462c-0.733-2.688,3.969-10.969,11.968-16.896
	c4.82-3.573,4.541-7.769,3.945-9.951c-0.768-2.812-2.807-5.145-4.049-5.275c-0.623-0.067-1.479-0.16-11.229,15.305
	c-3.951,6.268-7.78,12.602-8.957,14.556l-0.701-0.646c-0.11-0.102-0.254-0.158-0.403-0.158H87.744c-0.27,0-0.505,0.182-0.575,0.441
	l-14.596,54.395c-14.881-16.864-37.551-47.159-25.27-63.62c17.625-23.625,53.625-19.875,55.875-36c2.25-16.125,24-26.625-18-74.625
	c-42-48-45-114,18.75-102.75c63.75,11.25,87.75,6,60-54.75c-27.75-60.75,169.5-122.25,262.5-63c93,59.25,51,105.75,32.25,127.5
	c-18.75,21.75,12,30.75,58.5,36c46.5,5.25,42,44.25,8.25,86.25c-33.75,42-59.998,52.499-17.998,72.374
	C540.704,449.84,528.818,493.812,522.442,511.407z M183.781,332.484c-18.654-16.189-16.821-31.879-13.141-43.739
	c3.216-10.364,9.308-15.505,9.367-15.554l-1.525-1.853c-0.271,0.224-6.692,5.605-10.134,16.696
	c-3.593,11.578-6.064,28.969,13.86,46.262c19.106,16.583,10.455,26.787-3.878,43.692c-15.063,17.766,3.507,43.601,3.697,43.859
	l1.937-1.416c-0.178-0.244-17.657-24.551-3.803-40.891C194.394,362.752,204.678,350.622,183.781,332.484z M192.108,233.184
	l-1.729,1.663c0.18,0.187,17.699,18.97-5.265,43.728c-6.888,7.426-9.875,15.236-8.881,23.213
	c1.896,15.198,17.447,25.433,18.108,25.86l1.305-2.014c-0.153-0.099-15.284-10.072-17.033-24.154
	c-0.899-7.237,1.88-14.395,8.26-21.273C211.361,253.806,192.304,233.387,192.108,233.184z M366.606,244.821
	c0.82-1.188,1.685-2.399,2.563-3.629c7.353-10.297,15.686-21.969,6.747-32.695l-1.844,1.536c7.753,9.304,0.326,19.706-6.856,29.765
	c-0.885,1.24-1.758,2.461-2.584,3.661c-7.855,11.39,4.68,31.943,5.217,32.812l2.041-1.262
	C371.767,274.809,359.633,254.934,366.606,244.821z M394.459,185.397c-1.55-2.097-3.152-4.265-4.592-6.422
	c-9.145-13.718,0.66-26.927,1.082-27.483l-1.909-1.455c-0.113,0.149-11.277,15.106-1.169,30.269
	c1.471,2.207,3.091,4.398,4.657,6.518c9.205,12.452,17.154,23.206,0.408,38.429c-7.838,7.125-11.978,14.371-12.304,21.534
	c-0.347,7.606,3.8,12.222,3.977,12.415l1.771-1.619c-0.469-0.518-11.257-12.893,8.171-30.554
	C412.901,210.346,403.525,197.663,394.459,185.397z M88.201,453.07l-17.493,65.188h50.129v-45.023L98.951,453.07H88.201z"></path>
<path id="color_x5F_5" fill="#FFD2BB" d="M163.056,493.194c1.109,7.088-2.709,22.032-4.744,23.032
	c-1.381,0.678-3.174,0.177-4.755-0.267c-0.482-0.135-0.93-0.26-1.342-0.345c1.053-2.375,1.276-7.337,1.718-17.136l0.014-0.306
	c0.179-3.979-0.495-6.73-1.495-8.633c1.182-0.283,5.909-1.257,8.658,0.512C162.198,490.752,162.834,491.78,163.056,493.194z
	 M152.758,498.121c0.292-6.477-1.871-10.808-5.784-11.586c-0.947-0.19-1.9-0.122-2.784,0.132c-0.295,0.136-0.676,0.288-1.163,0.461
	c-1.125,0.602-2.026,1.555-2.455,2.739c-2,5.513,0.618,11.698,0.644,11.76c0.13,0.302-0.009,0.652-0.311,0.782
	c-0.299,0.129-0.652-0.008-0.782-0.31c-0.113-0.261-2.656-6.255-0.87-12.043c-0.392-0.096-0.972-0.196-1.669-0.196
	c-1.051,0-2.367,0.229-3.702,1.055c-3.084,1.907-2.093,10.505-0.813,19.148c0.49,3.311,1.446,5.45,2.842,6.36
	c1.468,0.956,3.292,0.456,4.759,0.054c0.361-0.1,0.7-0.192,1.006-0.258c0.968-0.208,1.935-0.28,2.787-0.286
	c-0.201-0.169-0.316-0.287-0.335-0.307c-0.227-0.237-0.219-0.612,0.017-0.84s0.612-0.221,0.841,0.015
	c0.018,0.02,1.817,1.847,4.485,1.571c2.392-0.238,2.615-3.339,3.272-17.947L152.758,498.121z M478.221,470.413v47.821h14.905
	v-47.821H478.221z"></path>
<path id="color_x5F_6" fill="#ff9827" d="M276.137,323.738c1.498-0.429,2.652-0.811,3.542-1.145
	c0.076,0.085,0.181,0.195,0.331,0.354c0.87,0.916,3.179,3.348,5.182,6.914c1.792,3.193,2.898,5.854,3.43,7.134
	c0.005,0.013,0.01,0.024,0.015,0.036c-2.616-0.021-4.553-0.055-5.423-0.072c-0.218-1.311-0.97-4.519-2.824-7.765
	C278.859,326.52,277.143,324.687,276.137,323.738z M335.441,318.529c2.088,3.771,3.596,8.402,4.078,9.972
	c2.967-0.647,4.696-0.812,5.651-0.828c-0.674-1.71-2.417-5.778-5.184-9.808c-3.111-4.531-6.658-7.683-7.602-8.485
	c-1.535,0.482-2.785,0.872-3.806,1.188C330.157,311.926,333.515,315.048,335.441,318.529z M268.079,458.907
	c0.116,2.656,0.204,5.409,0.271,8.206h5.987l-5.505-9.038C268.599,458.394,268.341,458.68,268.079,458.907z M297.346,441.555
	c-4.074-0.026-7.11-0.073-8.36-0.095l0.907,25.653h53.398c0.329,0,0.596,0.267,0.596,0.596v1.805
	c5.31-2.348,19.463-5.578,30.062-7.09l-5.337-27.741c-3.125,0.905-17.331,4.815-33.484,6.001c-4.025,0.295-8.547,0.497-13.15,0.633
	c5.148,9.462,0.346,18.842,0.296,18.938c-0.106,0.202-0.313,0.318-0.527,0.318c-0.094,0-0.188-0.022-0.276-0.068
	c-0.291-0.153-0.403-0.513-0.251-0.804c0.049-0.092,4.735-9.279-0.584-18.347c-7.871,0.21-15.857,0.236-21.921,0.207
	c4.935,9.378,0.208,18.598,0.159,18.693c-0.106,0.202-0.313,0.318-0.527,0.318c-0.094,0-0.188-0.022-0.276-0.068
	c-0.291-0.153-0.403-0.513-0.251-0.804C297.866,459.61,302.482,450.557,297.346,441.555z M393.776,495.895l-12.158-2.193
	c-0.035-0.006-0.07-0.01-0.105-0.01h-8.377c-0.329,0-0.596,0.267-0.596,0.596v4.954h-37.148v-4.954c0-0.109-0.037-0.205-0.088-0.293
	c0.988-0.398,1.904-0.938,2.719-1.6c0.914-0.047,1.831-0.088,2.737-0.144c23.668-1.483,38.067-7.471,38.21-7.53
	c0.259-0.11,0.406-0.386,0.354-0.661l-2.844-14.782c1.983,0.285,3.019,0.59,3.045,0.598c0.032,0.011,0.067,0.018,0.102,0.022
	c0.54,0.066,5.313,0.6,5.908-1.775c0.475-1.897,1.008-3.762,1.339-4.923c0.116-0.406-0.013-0.799-0.354-1.074
	c-1.042-0.842-5.58-0.64-11.389,0.136l-5.473-28.448c-0.032-0.166-0.134-0.311-0.278-0.398c-0.146-0.086-0.32-0.107-0.482-0.059
	c-0.155,0.049-15.776,4.813-33.857,6.14c-4.192,0.307-8.927,0.512-13.732,0.648c-4.889-8.359-9.313-18.881-1.855-27.292
	c7.787-8.779,0.446-19.944,0.371-20.057c-0.184-0.272-0.553-0.345-0.825-0.162c-0.273,0.183-0.347,0.553-0.163,0.826
	c0.069,0.104,6.897,10.518-0.273,18.604c-7.793,8.787-3.567,19.504,1.391,28.118c-7.943,0.202-15.948,0.218-21.914,0.186
	c-4.94-8.394-9.511-19.028-1.985-27.515c7.787-8.779,0.446-19.944,0.371-20.057c-0.182-0.272-0.552-0.346-0.826-0.162
	c-0.273,0.183-0.346,0.553-0.163,0.826c0.07,0.104,6.898,10.518-0.273,18.604c-7.847,8.848-3.509,19.651,1.491,28.295
	c-4.937-0.035-8.178-0.099-8.273-0.1c-0.157-0.026-0.321,0.061-0.436,0.177c-0.115,0.117-0.177,0.275-0.171,0.439l0.927,26.238
	h-8.104l-9.667-16.098c1.726,0.372,2.837,0.472,3.068,0.489c0.085,0.013,0.173,0.005,0.259-0.022
	c1.236-0.394,2.657-1.839,2.798-3.489c0.09-1.053-0.292-2.561-2.625-3.77c-1.027-0.533-2.798-1.525-4.895-2.706
	c0.828-2.045,4.112-10.453,8.53-25.639c4.842-16.644,5.195-71.335,5.219-77.727c3.012,0.059,16.65,0.272,28.548-0.294
	c9.193-0.438,15.346-3.212,20.288-5.441c2.385-1.074,4.443-2.003,6.401-2.467c0.22-0.052,0.435-0.102,0.644-0.149
	c0.05-0.005,0.101-0.016,0.149-0.034c3.834-0.863,5.623-0.917,6.273-0.899c1.303,4.56,13.713,47.701,22.21,67.428
	c8.917,20.698,17.479,41.231,17.563,41.437c0.016,0.036,0.034,0.071,0.056,0.103C388.57,459.162,391.605,480.473,393.776,495.895z
	 M331.866,354.513c-0.21-0.254-0.585-0.285-0.838-0.076c-0.053,0.043-5.361,4.441-15.725,10.98
	c-10.364,6.539-23.346,12.181-23.476,12.237c-0.302,0.13-0.44,0.48-0.31,0.782c0.097,0.225,0.316,0.359,0.547,0.359
	c0.079,0,0.159-0.016,0.236-0.05c0.131-0.056,13.194-5.732,23.638-12.321c10.438-6.587,15.799-11.03,15.852-11.074
	C332.043,355.141,332.077,354.765,331.866,354.513z M340.817,346.046c-0.249-0.212-0.624-0.186-0.84,0.064
	c-2.182,2.545-4.146,4.032-4.165,4.047c-0.263,0.197-0.315,0.57-0.118,0.833c0.117,0.156,0.295,0.238,0.477,0.238
	c0.124,0,0.249-0.039,0.356-0.119c0.084-0.063,2.082-1.574,4.354-4.224C341.096,346.636,341.066,346.26,340.817,346.046z
	 M341.947,479.906v4.275c0,2.667-0.999,5.099-2.633,6.963c0.458-0.026,0.916-0.051,1.372-0.08
	c21.143-1.325,34.792-6.261,37.375-7.263l-2.824-14.68c-3.147-0.355-7.99-0.563-14.483,0.147
	C349.415,470.503,342.836,478.727,341.947,479.906z M286.013,496.477c0.284,0.051,0.49,0.298,0.49,0.586v2.18h23.938v-2.18
	c0-0.288,0.207-0.535,0.49-0.586l9.498-1.713h-43.913L286.013,496.477z"></path>
<path id="color_x5F_7" fill="#808080" d="M340.756,472.132v7.578v4.471c0,5.179-4.213,9.392-9.392,9.392h-67.658
	c-5.179,0-9.392-4.213-9.392-9.392v-12.049h23.412h4.833H340.756z"></path>
</svg>